<svg width="72" height="72" viewBox="0 0 72 72" fill="none" xmlns="http://www.w3.org/2000/svg">
<rect width="72" height="72" rx="36" fill="#F8F6F0"/>
<path d="M23.0903 24.4733C22.4415 24.5071 21.8617 24.7611 21.3854 25.0958C20.8008 25.5074 20.3993 26.0015 20.0399 26.4927C20.038 26.4927 20.0361 26.4927 20.0342 26.4927C19.9201 26.6286 19.8607 26.804 19.8598 26.9802C19.8598 27.4021 20.2143 27.7443 20.6456 27.7433C20.9178 27.7433 21.1727 27.6046 21.3135 27.3768C21.3135 27.3749 21.3135 27.373 21.3135 27.3711C21.6327 26.9493 21.946 26.5668 22.2939 26.3221C22.5785 26.1224 22.8948 26.0033 23.1775 25.9893C23.443 25.9752 23.7247 26.0755 23.8665 26.2161C23.9739 26.324 24.062 26.5143 24.0965 26.729C24.132 26.9465 24.1157 27.2005 24.0553 27.478C23.9145 28.1249 23.5723 28.768 23.1516 29.4027C22.73 30.0393 22.224 30.6833 21.7649 31.4136C21.487 31.8561 21.2081 32.3699 21.0759 32.9774C20.9417 33.5971 20.9705 34.3143 21.3643 34.9368C21.7141 35.489 22.2767 35.8424 22.8689 35.9971C23.4525 36.1499 24.0505 36.1105 24.5853 35.9568C25.6395 35.653 26.3994 34.9602 27.0463 34.364C28.1196 33.3758 29.1259 32.3783 30.226 31.5843C30.6142 31.3049 30.9707 31.1005 31.263 31.0565C31.4029 31.0358 31.5457 31.0565 31.6396 31.0911C31.6808 31.1071 31.7163 31.1333 31.746 31.1568C31.7757 31.1802 31.7996 31.2018 31.8131 31.2261C31.8322 31.2608 31.86 31.3377 31.8696 31.439C31.8801 31.5477 31.8725 31.6836 31.8638 31.8543C31.8562 32.0286 31.8475 32.2433 31.8696 32.4843C31.8907 32.7224 31.9434 33.0046 32.0958 33.283C32.2692 33.599 32.526 33.838 32.8088 34.0011C33.0915 34.1643 33.3933 34.2458 33.677 34.2833C34.2424 34.3583 34.7465 34.258 35.1615 34.168C36.896 33.7911 38.5798 33.1986 40.1726 32.429C40.1735 32.428 40.1745 32.4261 40.1764 32.4252C40.4668 32.309 40.6546 32.0324 40.6556 31.7258C40.6566 31.3068 40.3135 30.9665 39.8841 30.9674C39.749 30.9674 39.6139 30.9983 39.4989 31.063C38.0163 31.7821 36.4504 32.3343 34.8347 32.6849C34.4533 32.7674 34.1198 32.8115 33.884 32.7805C33.7671 32.7655 33.6741 32.7383 33.6013 32.6961C33.538 32.6586 33.4901 32.6043 33.4681 32.564C33.447 32.5246 33.4144 32.4505 33.4068 32.353C33.3972 32.2499 33.4077 32.1093 33.4163 31.9321C33.424 31.7596 33.4365 31.543 33.4125 31.2983C33.3895 31.0536 33.3291 30.7724 33.1748 30.4977C32.9496 30.0983 32.5826 29.8218 32.1887 29.6736C31.7968 29.5265 31.3981 29.5152 31.0339 29.5696C30.3104 29.6774 29.7498 30.0486 29.306 30.3683C28.0698 31.2599 27.0338 32.3043 25.9931 33.2633C25.3711 33.8361 24.7626 34.3321 24.1435 34.5102C23.8416 34.5974 23.5244 34.6011 23.2657 34.5336C23.0146 34.468 22.7913 34.3086 22.684 34.138C22.5594 33.9402 22.5134 33.6093 22.5833 33.2877C22.6562 32.9502 22.8411 32.5893 23.0817 32.2077C23.4813 31.5711 23.9873 30.9365 24.4578 30.2268C24.9284 29.5171 25.3673 28.7127 25.5676 27.7893C25.6548 27.3899 25.7046 26.9446 25.6289 26.4815C25.5532 26.0118 25.3472 25.5411 24.9667 25.1615C24.4578 24.6533 23.7535 24.4386 23.0903 24.4733Z" fill="#FF9955"/>
<path d="M38.9986 34.2225C38.7178 34.1953 38.4255 34.2741 38.1879 34.4644V34.4663C37.7125 34.8478 37.6435 35.5238 38.0326 35.9897L44.5311 43.755C44.5991 43.8375 44.5895 43.9472 44.5052 44.0147C44.4247 44.0784 44.3001 44.0653 44.2321 43.9838L41.8104 41.0888L41.8027 41.0813C41.7989 41.0766 41.796 41.0728 41.7912 41.0681C41.7883 41.0644 41.7855 41.0616 41.7816 41.0588C41.5756 40.8572 41.4338 40.7381 41.2498 40.6781C41.0456 40.6116 40.8616 40.6322 40.7313 40.68L40.7275 40.6819C40.6671 40.7044 40.6211 40.7316 40.5837 40.7569C40.5713 40.7644 40.5636 40.7709 40.5559 40.7766C40.5511 40.7794 40.5291 40.7981 40.5185 40.8075C40.5166 40.8084 40.5128 40.8113 40.5128 40.8113C40.5003 40.8244 40.4908 40.8366 40.4812 40.8516L40.4793 40.8553C40.4793 40.8553 40.4754 40.8609 40.4658 40.8788H40.4716C40.4256 40.95 40.3729 41.0456 40.3595 41.1684C40.3422 41.3222 40.3575 41.5369 40.44 41.8566C40.6067 42.5016 41.0523 43.5572 41.2823 44.2678C41.5123 44.9784 41.5152 45.3 41.681 45.7069C41.8458 46.11 42.1784 46.6247 42.8205 47.1919C43.4654 47.76 44.4209 48.3769 45.291 48.6169C46.1593 48.8559 46.9787 48.7322 47.7933 48.7528C48.6059 48.7725 49.3467 48.9394 49.847 49.1466C50.3415 49.3519 50.6069 49.6191 51.0708 50.1975C51.1359 50.28 51.2538 50.4356 51.3381 50.5453C51.3554 50.5697 51.3793 50.5884 51.3985 50.6109C51.8144 51.1078 52.5638 51.18 53.0718 50.7741C53.0842 50.7638 53.0986 50.7581 53.111 50.7488L56.5965 47.9578C56.6185 47.9409 56.6377 47.9203 56.6578 47.9025C57.1648 47.4956 57.2213 46.7297 56.8054 46.2328C56.4614 45.7969 56.147 45.3853 55.941 45.0553C55.4417 44.2584 55.4283 43.7831 55.4302 43.3397C55.4321 42.8897 55.436 42.3984 55.2845 41.8378C55.1331 41.2763 54.8226 40.6322 54.5284 40.1953C54.2342 39.7603 53.9496 39.5175 53.4953 39.0216C53.042 38.5275 52.4508 37.7925 51.8499 37.0659L50.9308 35.9672C50.5418 35.5013 49.8489 35.4347 49.3735 35.8153C48.9078 36.1884 48.834 36.8447 49.1953 37.3078C49.1972 37.3097 49.1982 37.3134 49.1991 37.3153L49.5642 37.7494C49.6333 37.8319 49.6227 37.9453 49.5384 38.0128C49.454 38.0803 49.3381 38.0709 49.2691 37.9894V37.9875L48.9231 37.5759L47.8335 36.27C47.4444 35.8031 46.7525 35.7347 46.2762 36.1163C45.8066 36.4922 45.7338 37.155 46.1056 37.62C46.1066 37.6219 46.1075 37.6238 46.1095 37.6256H46.1114L47.2528 38.9991C47.316 39.0816 47.3035 39.1922 47.223 39.2569C47.1406 39.3225 47.0247 39.3131 46.9557 39.2316V39.2297L45.8325 37.8816L45.8498 37.9106C45.8373 37.8881 45.8258 37.8741 45.822 37.8684L45.8181 37.8647L45.8162 37.8591L45.8143 37.8572L44.5963 36.4013C44.2072 35.9353 43.5143 35.8659 43.039 36.2475C42.5636 36.6281 42.4927 37.3069 42.8818 37.7728L45.3696 40.7428C45.4281 40.8225 45.4128 40.935 45.3342 40.9988C45.2508 41.0653 45.1329 41.0531 45.0649 40.9716L39.7471 34.6144C39.5506 34.3828 39.2794 34.2497 38.9986 34.2225Z" fill="#3973B7"/>
<path d="M16.4423 20.9617C15.6 20.9617 14.9167 21.6273 14.9167 22.4523V25.0689V26.0617V28.4842V30.1923V30.4998V33.9132V34.9717V35.6195V36.5457V43.8132C14.9167 44.6373 15.6 45.3057 16.4423 45.3057H28.64H29.9108C29.8724 45.6273 29.8322 45.9479 29.7948 46.2685C29.7133 46.9651 29.6338 47.6345 29.3703 48.2007C29.306 48.3376 29.2303 48.466 29.146 48.5776C29.0617 48.6892 28.9668 48.7876 28.8633 48.8598C28.7953 48.9076 28.7215 48.9442 28.6438 48.9732H26.9447C26.9342 48.9732 26.9236 48.9742 26.9131 48.9751C26.8968 48.976 26.8805 48.9779 26.8652 48.9807C26.8594 48.9826 26.8527 48.9845 26.846 48.9864C26.8393 48.9873 26.8326 48.9882 26.8259 48.9901C26.8115 48.9939 26.7971 48.9976 26.7828 49.0032C26.7799 49.0032 26.777 49.0051 26.7732 49.0051C26.7607 49.0107 26.7492 49.0164 26.7377 49.022C26.732 49.0248 26.7253 49.0276 26.7185 49.0314C26.7061 49.0379 26.6946 49.0445 26.6831 49.051C26.6745 49.0567 26.6668 49.0623 26.6591 49.0679C26.6572 49.0698 26.6543 49.0717 26.6515 49.0735C26.64 49.0829 26.6285 49.0932 26.6179 49.1026C26.6122 49.1064 26.6064 49.111 26.6007 49.1157C26.594 49.1214 26.5882 49.1279 26.5815 49.1345C26.5748 49.142 26.569 49.1495 26.5623 49.156C26.5566 49.1635 26.5508 49.171 26.5451 49.1776C26.5384 49.187 26.5326 49.1973 26.5259 49.2067C26.523 49.2123 26.5192 49.2179 26.5163 49.2235C26.5106 49.2348 26.5048 49.2451 26.4991 49.2564C26.4972 49.2601 26.4953 49.2639 26.4933 49.2676C26.4866 49.2826 26.4799 49.2967 26.4742 49.3117C26.4742 49.3135 26.4732 49.3135 26.4723 49.3154C26.4684 49.3295 26.4655 49.3426 26.4627 49.3576C26.4617 49.3632 26.4598 49.3707 26.4588 49.3764C26.4569 49.3904 26.455 49.4035 26.4531 49.4185C26.4531 49.4204 26.4531 49.4242 26.4531 49.426C26.4521 49.4429 26.4521 49.4607 26.4531 49.4776C26.454 49.4945 26.456 49.5104 26.4588 49.5273C26.4588 49.531 26.4598 49.5367 26.4608 49.5404C26.4636 49.5564 26.4675 49.5714 26.4723 49.5864C26.4742 49.5967 26.477 49.606 26.4799 49.6154L26.7387 50.3317C26.7435 50.3457 26.7492 50.3589 26.7559 50.372C26.7598 50.3795 26.7636 50.387 26.7674 50.3935C26.7732 50.4067 26.7808 50.4179 26.7875 50.4301C26.7981 50.4451 26.8086 50.4592 26.8211 50.4742C26.8307 50.4864 26.8412 50.4976 26.8527 50.5089C26.8546 50.5107 26.8565 50.5126 26.8585 50.5145C26.8671 50.5239 26.8767 50.5323 26.8863 50.5398C26.8968 50.5473 26.9073 50.5548 26.9179 50.5614C26.9275 50.5689 26.938 50.5754 26.9476 50.581C26.9639 50.5904 26.9811 50.5998 26.9984 50.6064C27.0156 50.6139 27.0329 50.6214 27.0511 50.626C27.0664 50.6317 27.0818 50.6354 27.098 50.6392C27.1 50.6392 27.1028 50.641 27.1057 50.641C27.1182 50.6429 27.1306 50.6448 27.1431 50.6467C27.1623 50.6485 27.1805 50.6504 27.1996 50.6504H29.4565H32.5222H32.6612H34.78H34.919H34.9209H40.2425C40.2617 50.6504 40.2818 50.6485 40.301 50.6467C40.3163 50.6448 40.3307 50.6429 40.346 50.6392C40.3623 50.6354 40.3777 50.6317 40.393 50.626C40.4103 50.6204 40.4265 50.6129 40.4438 50.6064C40.461 50.5998 40.4773 50.5895 40.4946 50.581C40.5061 50.5745 40.5157 50.5679 40.5262 50.5614C40.5368 50.5548 40.5463 50.5464 40.5559 50.5398C40.5674 50.5295 40.578 50.5201 40.5895 50.5089C40.601 50.4976 40.6115 50.4864 40.6211 50.4742C40.6335 50.4592 40.6441 50.4451 40.6546 50.4301C40.6623 50.4179 40.67 50.4067 40.6748 50.3935C40.6786 50.386 40.6824 50.3785 40.6863 50.372C40.6939 50.3589 40.6997 50.3457 40.7054 50.3317L40.9623 49.6154C40.9651 49.606 40.968 49.5957 40.9699 49.5864C40.9747 49.5714 40.9785 49.5564 40.9814 49.5404C40.9814 49.5367 40.9833 49.531 40.9833 49.5273C40.9862 49.5104 40.9881 49.4945 40.9891 49.4776C40.99 49.4607 40.99 49.4429 40.9891 49.426C40.9891 49.4242 40.9891 49.4204 40.9891 49.4185C40.9872 49.4035 40.9853 49.3904 40.9833 49.3764C40.9824 49.3707 40.9814 49.3632 40.9795 49.3576C40.9776 49.3426 40.9738 49.3295 40.9699 49.3154C40.9699 49.3135 40.968 49.3117 40.968 49.3098C40.9623 49.2948 40.9565 49.2807 40.9488 49.2657C40.9469 49.262 40.945 49.2601 40.9431 49.2564C40.9373 49.2442 40.9316 49.2329 40.9258 49.2217C40.923 49.216 40.9201 49.2114 40.9163 49.2067C40.9105 49.1964 40.9038 49.187 40.8971 49.1776C40.8913 49.1701 40.8856 49.1626 40.8798 49.156C40.8741 49.1495 40.8674 49.141 40.8607 49.1345C40.8549 49.1279 40.8482 49.1214 40.8415 49.1157C40.8358 49.1101 40.83 49.1054 40.8243 49.1007C40.8128 49.0914 40.8022 49.082 40.7907 49.0735C40.7888 49.0717 40.785 49.0698 40.783 49.0679C40.7754 49.0614 40.7668 49.0548 40.7591 49.0492C40.7476 49.0426 40.737 49.036 40.7255 49.0304C40.7179 49.0267 40.7121 49.0239 40.7054 49.021C40.6939 49.0154 40.6824 49.0098 40.67 49.0042C40.6661 49.0023 40.6642 49.0023 40.6604 49.0004C40.646 48.9967 40.6326 48.9929 40.6173 48.9892C40.6096 48.9873 40.6038 48.9864 40.5971 48.9854C40.5914 48.9835 40.5837 48.9817 40.578 48.9798C40.5626 48.977 40.5473 48.9751 40.531 48.9742H40.5291C40.5195 48.9732 40.509 48.9723 40.4994 48.9723H38.7983C38.7217 48.9432 38.6488 48.9057 38.5808 48.8589C38.4773 48.7867 38.3834 48.6882 38.2981 48.5767C38.2128 48.4651 38.1371 48.3367 38.0738 48.1998C37.8103 47.6335 37.7308 46.9651 37.6493 46.2676C37.6119 45.946 37.5717 45.6254 37.5333 45.3048H38.8041H40.6575C40.6058 45.0807 40.5578 44.8454 40.4534 44.5248C40.2454 43.8835 39.7969 42.842 39.5957 42.062C39.5248 41.7873 39.496 41.5557 39.4912 41.3354H36.8366H30.6094H16.5267V35.6185V34.9904V34.9689V33.9123V30.4989V30.1895V26.0589V25.0689V22.5348H50.9203V25.0689V26.0598V30.1904V33.9132V34.9201C51.1781 35.0373 51.4129 35.206 51.6017 35.4329L52.4699 36.4679L52.49 36.4932C52.5035 36.5064 52.5159 36.5185 52.5293 36.5317V35.6195V34.9717V33.9132V30.1923V26.0617V25.0689V22.4523C52.5293 21.6282 51.846 20.9617 51.0037 20.9617H16.4423Z" fill="#3973B7"/>
</svg>
