<svg width="72" height="72" viewBox="0 0 72 72" fill="none" xmlns="http://www.w3.org/2000/svg">
<rect width="72" height="72" rx="36" fill="#F8F6F0"/>
<path d="M23.395 34.385C22.6469 34.385 22.0437 34.9873 22.0437 35.7345V39.0212C22.0437 39.7694 22.6478 40.3707 23.395 40.3707H36.3992H47.6602H48.6031C49.3513 40.3707 49.9545 39.7684 49.9545 39.0212V35.7345C49.9545 34.9864 49.3503 34.385 48.6031 34.385H47.6602H36.3992H23.395ZM26.506 35.5312C26.5744 35.5247 26.6457 35.5422 26.7019 35.5825C26.7769 35.636 26.8246 35.7277 26.8246 35.8206V36.6281L27.4362 36.2655C27.5383 36.2055 27.6785 36.2152 27.7694 36.2911L27.9946 36.4779C28.0659 36.537 28.1028 36.6332 28.0953 36.7251C28.0878 36.817 28.0349 36.9025 27.9562 36.9503L27.2347 37.377L27.9562 37.8054C28.0349 37.8532 28.0888 37.9379 28.0953 38.0288C28.1019 38.1197 28.0649 38.2188 27.9946 38.2778L27.7694 38.4646C27.6785 38.5405 27.5374 38.5493 27.4362 38.4884L26.8246 38.1277V38.8363V38.8381C26.8246 38.9572 26.7448 39.0698 26.6323 39.1091L26.3558 39.208C26.2686 39.2389 26.1672 39.2248 26.0922 39.1714C26.0172 39.1179 25.9695 39.0262 25.9695 38.9333V38.1277L25.3597 38.4884C25.2576 38.5484 25.1193 38.5405 25.0283 38.4646L24.8031 38.2778C24.7319 38.2188 24.6931 38.1207 24.7006 38.0288C24.7081 37.9369 24.7628 37.8532 24.8416 37.8054L25.5612 37.377L24.8416 36.9503C24.7628 36.9025 24.7071 36.816 24.7006 36.7251C24.694 36.6342 24.7328 36.5388 24.8031 36.4797L25.0283 36.2911C25.1193 36.2152 25.2576 36.2046 25.3597 36.2655H25.3616L25.9713 36.6281V35.9176C25.9713 35.7995 26.0529 35.6842 26.1654 35.6448L26.4419 35.5459C26.4625 35.5375 26.4835 35.5331 26.506 35.5312ZM31.3088 35.5312C31.3773 35.5247 31.4485 35.5422 31.5048 35.5825C31.5807 35.636 31.6256 35.7277 31.6256 35.8206V36.6281L32.2372 36.2655C32.3394 36.2055 32.4795 36.2152 32.5704 36.2911L32.7938 36.4779C32.8651 36.537 32.902 36.6332 32.8945 36.7251C32.887 36.817 32.8341 36.9025 32.7554 36.9503L32.0339 37.377L32.7554 37.8054C32.8341 37.8532 32.888 37.9379 32.8945 38.0288C32.9011 38.1197 32.8641 38.2188 32.7938 38.2778L32.5704 38.4646C32.4795 38.5405 32.3384 38.5493 32.2372 38.4884L31.6256 38.1277V38.8363V38.8381C31.6256 38.9572 31.544 39.0698 31.4315 39.1091L31.155 39.208C31.0678 39.2389 30.9682 39.2248 30.8932 39.1714C30.8182 39.1179 30.7705 39.0262 30.7705 38.9333V38.1277L30.1608 38.4884C30.0586 38.5484 29.9166 38.5405 29.8257 38.4646L29.6041 38.2778C29.5329 38.2188 29.4923 38.1207 29.4998 38.0288C29.5073 37.9369 29.5638 37.8532 29.6426 37.8054L30.3622 37.377L29.6426 36.9503C29.5638 36.9025 29.5063 36.816 29.4998 36.7251C29.4932 36.6342 29.5338 36.5388 29.6041 36.4797L29.8257 36.2911C29.9166 36.2152 30.0595 36.2046 30.1608 36.2655L30.7705 36.6281V35.9176C30.7705 35.7995 30.8503 35.6842 30.9628 35.6448H30.9646L31.2393 35.5459C31.2608 35.5375 31.2863 35.5331 31.3088 35.5312ZM36.108 35.5312C36.1765 35.5247 36.2477 35.5422 36.304 35.5825C36.379 35.636 36.4266 35.7277 36.4266 35.8206V36.6281L37.0364 36.2655C37.1386 36.2055 37.2805 36.2152 37.3715 36.2911L37.5948 36.4779C37.6661 36.537 37.7031 36.6332 37.6956 36.7251C37.6881 36.817 37.6351 36.9025 37.5564 36.9503L36.835 37.377L37.5564 37.8054C37.6351 37.8532 37.6908 37.9379 37.6974 38.0288C37.7039 38.1197 37.6661 38.2188 37.5948 38.2778L37.3715 38.4646C37.2796 38.5405 37.1386 38.5493 37.0364 38.4884L36.4266 38.1277V38.8363V38.8381C36.4266 38.9572 36.3469 39.0698 36.2344 39.1091L35.9579 39.208C35.8707 39.2389 35.7692 39.2248 35.6942 39.1714C35.6183 39.1179 35.5715 39.028 35.5715 38.9352V38.1277L34.9618 38.4884C34.8596 38.5484 34.7176 38.5405 34.6267 38.4646L34.4033 38.2778C34.3321 38.2188 34.2951 38.1207 34.3026 38.0288C34.3101 37.9369 34.363 37.8532 34.4418 37.8054L35.1632 37.377L34.4418 36.9503C34.363 36.9025 34.3092 36.816 34.3026 36.7251C34.2961 36.6342 34.333 36.5388 34.4033 36.4797L34.6267 36.2911C34.7176 36.2152 34.8587 36.2046 34.96 36.2655H34.9618L35.5734 36.6281V35.9176C35.5734 35.7995 35.6531 35.6823 35.7656 35.6429L36.0421 35.5459C36.0637 35.5384 36.0855 35.5331 36.108 35.5312ZM40.9091 35.5312C40.9775 35.5247 41.0478 35.5422 41.105 35.5825C41.18 35.636 41.2277 35.7277 41.2277 35.8206V36.6281L41.8392 36.2655C41.9414 36.2055 42.0797 36.2152 42.1707 36.2911L42.394 36.4779C42.4653 36.537 42.5059 36.6332 42.4984 36.7251C42.4909 36.817 42.4343 36.9025 42.3556 36.9503L41.6378 37.377L42.3556 37.8054C42.4343 37.8532 42.4918 37.9379 42.4984 38.0288C42.505 38.1197 42.4653 38.2188 42.394 38.2778L42.1707 38.4646C42.0788 38.5405 41.9414 38.5493 41.8392 38.4884L41.2277 38.1277V38.8363V38.8381C41.2277 38.9572 41.1451 39.0698 41.0336 39.1091L40.7589 39.208C40.6717 39.2389 40.5702 39.2248 40.4952 39.1714C40.4202 39.1179 40.3726 39.028 40.3726 38.9352V38.1277L39.761 38.4884C39.6588 38.5484 39.5214 38.5405 39.4296 38.4646L39.2025 38.2778C39.1313 38.2188 39.0943 38.1207 39.1018 38.0288C39.1093 37.9369 39.1622 37.8532 39.241 37.8054L39.9624 37.377L39.241 36.9503C39.1622 36.9025 39.1084 36.816 39.1018 36.7251C39.0952 36.6342 39.1313 36.5388 39.2025 36.4797L39.4296 36.2911C39.5214 36.2152 39.6579 36.2046 39.761 36.2655L40.3726 36.6281V35.9176C40.3726 35.7995 40.4533 35.6842 40.5648 35.6448H40.5667L40.8431 35.5459C40.8647 35.5375 40.8866 35.5331 40.9091 35.5312ZM45.7083 35.5312H45.7101C45.7776 35.5256 45.8498 35.5422 45.906 35.5825C45.981 35.636 46.0287 35.7277 46.0287 35.8206V36.6281L46.6384 36.2655C46.7406 36.2055 46.8789 36.2152 46.9698 36.2911L47.1969 36.4779C47.2682 36.537 47.3051 36.6332 47.2976 36.7251C47.2901 36.817 47.2372 36.9025 47.1584 36.9503L46.437 37.377L47.1584 37.8054C47.2372 37.8532 47.291 37.9379 47.2976 38.0288C47.3042 38.1197 47.2682 38.2188 47.1969 38.2778L46.9698 38.4646C46.878 38.5405 46.7406 38.5493 46.6384 38.4884L46.0287 38.1277V38.8363V38.8381C46.0287 38.9572 45.9462 39.0698 45.8346 39.1091L45.5581 39.208C45.4709 39.2389 45.3713 39.2248 45.2963 39.1714C45.2213 39.1179 45.1736 39.028 45.1736 38.9352V38.1277L44.562 38.4884C44.4598 38.5484 44.3197 38.5405 44.2288 38.4646L44.0054 38.2778C43.9341 38.2188 43.8953 38.1207 43.9028 38.0288C43.9103 37.9369 43.9651 37.8532 44.0438 37.8054L44.7634 37.377L44.0438 36.9503C43.9651 36.9025 43.9094 36.816 43.9028 36.7251C43.8963 36.6342 43.9341 36.5388 44.0054 36.4797L44.2288 36.2911C44.3206 36.2152 44.4598 36.2046 44.562 36.2655L45.1736 36.6281V35.9176C45.1736 35.7995 45.2543 35.6842 45.3658 35.6448L45.6423 35.5459C45.6639 35.5375 45.6867 35.5341 45.7083 35.5312Z" fill="#FF9955"/>
<path d="M31.2834 27.8718V27.8737H29.6559C29.549 27.8737 29.4412 27.9196 29.3662 27.9965C29.2912 28.0734 29.249 28.1803 29.2528 28.2881C29.2537 28.3293 29.2622 28.3715 29.2762 28.4109L29.4487 28.8984C29.5031 29.054 29.6634 29.1675 29.8275 29.1675H31.2834H31.5047H32.9625H33.1434C33.6487 29.7168 34.289 30.1265 34.9931 30.359C35.4459 30.509 35.9222 30.5878 36.4031 30.5896H36.4106H36.4125C36.8934 30.5868 37.3678 30.509 37.8206 30.359C38.5237 30.1256 39.1669 29.7159 39.6722 29.1675H41.0878H41.4412H41.6625H43.1184C43.2834 29.1675 43.4428 29.054 43.4972 28.8984L43.6697 28.4109C43.6837 28.3715 43.6912 28.3303 43.6931 28.2881C43.6969 28.1812 43.6547 28.0734 43.5797 27.9965C43.5047 27.9196 43.3978 27.8718 43.29 27.8718H41.6625H41.4412H41.2603H39.6328H39.2297H37.6003H37.199H35.5697H35.1665H33.539H33.1359H31.2834Z" fill="#3973B7"/>
<path d="M18.6487 26.1562C17.8031 26.1562 17.1178 26.8406 17.1178 27.6872V31.3931V35.6316V35.9466V39.4491V40.5366V41.2012V49.6116C17.1178 50.4572 17.8022 51.1444 18.6487 51.1444H32.1731C32.1347 51.4744 32.0934 51.8016 32.0559 52.1316C31.9744 52.8469 31.8937 53.5359 31.6294 54.1162C31.5009 54.3984 31.3303 54.6422 31.1222 54.7903C31.0537 54.84 30.9769 54.8766 30.899 54.9075H29.1937C29.175 54.9075 29.1553 54.9094 29.1365 54.9112C29.1169 54.9131 29.0981 54.9169 29.0794 54.9206C29.0606 54.9253 29.0419 54.9309 29.024 54.9375C28.9519 54.9637 28.8872 55.0069 28.8356 55.0622C28.709 55.1962 28.6678 55.3884 28.7278 55.5619L28.9875 56.2959C29.0522 56.4806 29.2209 56.6091 29.4159 56.6241C29.429 56.6241 29.4403 56.625 29.4525 56.625H29.4544H34.7972H37.2028H42.5456H42.5475C42.6056 56.625 42.6619 56.6137 42.7162 56.5941C42.7265 56.5903 42.7359 56.5856 42.7453 56.5809C42.7537 56.5781 42.7622 56.5753 42.7687 56.5716C42.7781 56.5659 42.7875 56.5603 42.7959 56.5547C42.8034 56.5509 42.81 56.5472 42.8156 56.5434L42.8175 56.5416C42.8212 56.5397 42.825 56.5369 42.8287 56.5341C42.8409 56.5256 42.8522 56.5172 42.8634 56.5087C42.8784 56.4956 42.8906 56.4834 42.9037 56.4684C42.9169 56.4553 42.9272 56.4412 42.9384 56.4262L42.9403 56.4244C42.9515 56.4094 42.9619 56.3953 42.9712 56.3784V56.3766C42.9806 56.3597 42.99 56.3437 42.9965 56.3269V56.325C43.0012 56.3147 43.0059 56.3053 43.0097 56.2941L43.2694 55.56C43.3331 55.3744 43.2806 55.1681 43.1353 55.0359C43.1222 55.0228 43.1081 55.0125 43.0931 55.0012H43.0912C43.0762 54.99 43.0622 54.9797 43.0453 54.9703H43.0434C43.0265 54.9609 43.0106 54.9516 42.9937 54.945H42.9919C42.975 54.9375 42.9581 54.9319 42.9403 54.9262H42.9384C42.9197 54.9206 42.9019 54.9169 42.8831 54.9131H42.8812C42.8625 54.9094 42.8447 54.9075 42.8259 54.9056H42.824C42.8165 54.9056 42.809 54.9056 42.8025 54.9056H42.8006H41.0981C41.0194 54.8747 40.9434 54.8381 40.875 54.7884C40.6659 54.6403 40.4962 54.3966 40.3678 54.1144C40.1044 53.5341 40.0237 52.845 39.9412 52.1297C39.9037 51.7997 39.8625 51.4725 39.824 51.1425H53.3484C54.194 51.1425 54.8794 50.4562 54.8794 49.6097V41.1994V40.5375V39.45V35.9475V35.6325V31.3941V27.6881C54.8794 27.4762 54.8334 27.2747 54.7565 27.0909C54.7181 27 54.6722 26.9138 54.6178 26.8331L54.6159 26.8313C54.5606 26.7506 54.4997 26.6747 54.4312 26.6062V26.6044C54.3628 26.5359 54.2869 26.4741 54.2062 26.4197L54.2044 26.4178C54.1237 26.3634 54.0347 26.3156 53.9447 26.2772C53.8528 26.2387 53.7581 26.2097 53.6587 26.1891H53.6569C53.5584 26.1694 53.4562 26.1581 53.3512 26.1581H53.3494H48.2644V26.6869V27.7725H49.3265V27.7744H53.2631V31.3922V35.9475V39.45V40.2469H53.265V40.5384V41.2031V47.0719H45.6806H18.735V41.2031V40.5375V39.45V35.6325V33.8784V30.3722V27.7744H24.6806V26.6869V26.1562H18.6487Z" fill="#3973B7"/>
<path d="M47.2303 25.5299C47.1881 25.5309 47.1487 25.5402 47.1094 25.5534L46.6209 25.7277C46.4653 25.783 46.3519 25.9387 46.3519 26.1027V27.7818V29.0399C46.3519 29.7796 45.7987 30.329 45.0572 30.329H43.8047H41.9531C41.8462 30.329 41.7403 30.3749 41.6653 30.4518C41.5903 30.5287 41.5481 30.6374 41.5519 30.7452C41.5537 30.7865 41.5603 30.8268 41.5734 30.8662L41.7459 31.3546C41.8012 31.5102 41.9606 31.6237 42.1247 31.6237H43.8037V31.6218H45.0581C46.4906 31.6218 47.6437 30.4696 47.6437 29.0362V26.6849V25.9321C47.6437 25.8252 47.5978 25.7174 47.5209 25.6424C47.4441 25.5674 47.3372 25.5271 47.2303 25.5299Z" fill="#3973B7"/>
<path d="M25.7165 25.5299C25.6097 25.5271 25.5019 25.5693 25.425 25.6434C25.3481 25.7174 25.3003 25.8252 25.3003 25.933V26.6859V27.7827V29.0371C25.3003 30.4696 26.4544 31.6227 27.8878 31.6227H29.1422V31.6246H30.8212C30.9862 31.6246 31.1437 31.5112 31.1981 31.3555L31.3706 30.8671C31.3847 30.8277 31.3931 30.7884 31.394 30.7462C31.3969 30.6393 31.3547 30.5305 31.2806 30.4527C31.2065 30.3749 31.1006 30.3299 30.9928 30.3299H30.24H27.8906C27.149 30.3299 26.5959 29.7805 26.5959 29.0409V27.7827V26.6859V26.1037C26.5959 25.9387 26.4806 25.783 26.325 25.7287L25.8375 25.5543C25.7981 25.5402 25.7587 25.5309 25.7165 25.5299Z" fill="#3973B7"/>
<path d="M36.209 17.5284C35.7431 17.5547 35.2772 17.6588 34.845 17.8547C34.5478 17.9897 34.2844 18.1781 34.0397 18.3891C33.7547 18.4322 33.4762 18.5091 33.2194 18.6403C32.6465 18.9328 32.204 19.4241 31.9453 19.9988C31.6434 20.6672 31.6022 21.3816 31.5881 22.0425C31.5778 22.545 31.5881 23.0484 31.6078 23.5509C31.5825 23.5659 31.5562 23.5809 31.5272 23.6044C31.425 23.6859 31.2459 23.835 31.1428 24.0825C31.049 24.3066 31.0594 24.5147 31.0622 24.6188C31.0697 24.8644 31.0903 25.1081 31.1259 25.3547C31.2019 25.8619 31.3481 26.4309 31.7372 26.9109C31.8562 27.0581 31.995 27.1678 32.1365 27.2719C32.1422 27.2916 32.1506 27.3141 32.1562 27.3338H33.0206H33.4237H35.0531H35.4562H37.0837H37.4869H39.1144H39.5175H40.7044C40.8872 27.2166 41.0672 27.0872 41.2097 26.9109C41.5987 26.4309 41.7459 25.8619 41.8209 25.3547C41.8575 25.1081 41.8781 24.8644 41.8847 24.6188C41.8884 24.5147 41.8978 24.3066 41.804 24.0825C41.7019 23.835 41.5219 23.6869 41.4197 23.6044C41.414 23.6006 41.4075 23.5997 41.4009 23.595C41.4159 23.49 41.4356 23.3831 41.4469 23.2781C41.5125 22.6781 41.535 22.0669 41.4431 21.4491C41.3512 20.8294 41.144 20.2097 40.784 19.6716C40.2178 18.8241 39.3394 18.2719 38.4347 17.925C37.8778 17.7113 37.2862 17.5613 36.6731 17.5313V17.5284C36.5203 17.5209 36.3637 17.52 36.209 17.5284Z" fill="#3973B7"/>
<path d="M42.1247 15.375C41.9597 15.375 41.8003 15.4884 41.7459 15.6441L41.5734 16.1316C41.5594 16.1709 41.5537 16.2122 41.5519 16.2544C41.5481 16.3612 41.5903 16.4691 41.6653 16.5459C41.7403 16.6228 41.8453 16.6688 41.9531 16.6688H43.8047H45.0572C45.7987 16.6688 46.3519 17.22 46.3519 17.9597V20.3128V20.895C46.3519 21.06 46.4653 21.2175 46.6209 21.2719L47.1084 21.4462C47.1469 21.4603 47.1891 21.4669 47.2312 21.4678C47.3381 21.4706 47.4469 21.4284 47.5247 21.3544C47.6025 21.2803 47.6437 21.1734 47.6437 21.0656V19.215V17.9625C47.6437 16.53 46.4897 15.375 45.0562 15.375H43.8037H42.1247Z" fill="#3973B7"/>
<path d="M27.8887 15.375C26.4562 15.375 25.3031 16.5291 25.3031 17.9625V19.215H25.3012V21.0656C25.3012 21.1725 25.3472 21.2784 25.4241 21.3534C25.5009 21.4284 25.6097 21.4706 25.7175 21.4669C25.7587 21.4659 25.7991 21.4584 25.8384 21.4453L26.3269 21.2709C26.4825 21.2156 26.5959 21.0581 26.5959 20.8941V19.215V17.9588C26.5959 17.2191 27.1491 16.6678 27.8906 16.6678H30.24H30.9947C31.1016 16.6678 31.2075 16.6219 31.2825 16.545C31.3575 16.4681 31.3997 16.3613 31.3959 16.2534C31.395 16.2122 31.3856 16.17 31.3725 16.1306L31.2 15.6431C31.1447 15.4884 30.9862 15.375 30.8222 15.375H30.24H27.8887Z" fill="#3973B7"/>
</svg>
