<svg width="72" height="72" viewBox="0 0 72 72" fill="none" xmlns="http://www.w3.org/2000/svg">
<rect width="72" height="72" rx="36" fill="#F8F6F0"/>
<path d="M22.6997 50.8696C22.6097 50.8696 22.5253 50.9193 22.484 50.9999C22.2712 51.3712 22.0359 51.7284 21.7828 52.0678H21.7847C21.7519 52.1109 21.735 52.1634 21.735 52.2159C21.735 52.3509 21.8437 52.4615 21.9787 52.4615C22.0584 52.4615 22.1362 52.424 22.1822 52.3574L22.184 52.3556C22.4465 52.0021 22.6875 51.6309 22.9069 51.2437H22.9087C22.9331 51.2043 22.9434 51.1584 22.9434 51.1134C22.9425 50.9803 22.8337 50.8696 22.6997 50.8696Z" fill="#FF9955"/>
<path d="M24.3834 49.2112C24.2681 49.2112 24.165 49.2918 24.1415 49.4052C24.0028 49.8168 23.8406 50.2237 23.654 50.6212C23.654 50.6193 23.654 50.6212 23.6522 50.6249C23.6522 50.6259 23.6512 50.6268 23.6503 50.6287C23.6428 50.6456 23.6344 50.6596 23.6287 50.6727L23.6278 50.6746V50.6784C23.6194 50.6962 23.6109 50.7131 23.6025 50.7318V50.7337L23.6006 50.7356V50.7374L23.5987 50.7393L23.5978 50.7412C23.3794 51.1912 23.1347 51.6262 22.8628 52.0415C22.83 52.0837 22.8131 52.1352 22.8131 52.1877C22.8131 52.3218 22.9209 52.4315 23.055 52.4315C23.1422 52.4315 23.2237 52.3846 23.2678 52.3087C23.5519 51.8746 23.8097 51.4246 24.0365 50.954C24.0384 50.9502 24.0403 50.9465 24.0422 50.9427C24.0515 50.9231 24.0619 50.9043 24.0694 50.8856L24.0712 50.8818C24.0759 50.8724 24.0815 50.8602 24.0909 50.8396L24.0919 50.8377C24.0947 50.8331 24.0937 50.8321 24.0937 50.8302C24.0947 50.8293 24.0947 50.8284 24.0956 50.8265C24.0965 50.8227 24.0975 50.8209 24.0994 50.8171L24.1012 50.8152C24.2953 50.4018 24.464 49.9781 24.6084 49.5477C24.6206 49.5187 24.6253 49.4859 24.6253 49.454C24.6253 49.3209 24.5175 49.2112 24.3834 49.2112Z" fill="#FF9955"/>
<path d="M21.734 48.8691C21.6309 48.8691 21.5353 48.9329 21.5015 49.0323C21.4369 49.1945 21.3694 49.3548 21.2944 49.5141V49.516V49.5179C21.2944 49.5198 21.2925 49.5216 21.2925 49.5216C21.2859 49.5348 21.2784 49.546 21.2728 49.5601C21.2653 49.576 21.2597 49.591 21.2531 49.606L21.2522 49.6079C20.8809 50.3748 20.4094 51.0779 19.8637 51.677C19.8187 51.7229 19.7925 51.7848 19.7925 51.8495C19.7925 51.9835 19.9003 52.0932 20.0344 52.0932C20.1094 52.0932 20.1806 52.0576 20.2265 51.9976C20.804 51.362 21.3019 50.6279 21.6919 49.8226V49.8188C21.6928 49.8179 21.6928 49.817 21.6937 49.8151C21.7012 49.7982 21.7087 49.7841 21.7153 49.7673C21.7219 49.7532 21.7303 49.7401 21.7369 49.7251C21.7378 49.7232 21.7378 49.7223 21.7387 49.7213V49.7195C21.8165 49.5545 21.8878 49.3876 21.9544 49.2198V49.2188C21.9712 49.186 21.9778 49.1495 21.9778 49.1129C21.9778 48.9788 21.8681 48.8691 21.734 48.8691Z" fill="#FF9955"/>
<path d="M18.3394 48.7041C18.2522 48.7041 18.1715 48.75 18.1265 48.825C17.9025 49.1766 17.6484 49.4954 17.3944 49.7494C17.2697 49.8713 17.1797 49.9913 17.1065 50.101C17.0765 50.1432 17.0606 50.1929 17.0606 50.2435C17.0606 50.3794 17.1703 50.4891 17.3062 50.4891C17.3925 50.4891 17.4722 50.4422 17.5172 50.3682H17.519C17.5753 50.2838 17.6447 50.1957 17.7384 50.1047L17.7403 50.1029L17.7422 50.101C18.0234 49.8188 18.3 49.4729 18.5428 49.0922V49.0904C18.5719 49.0482 18.585 48.9985 18.585 48.9497C18.585 48.8138 18.4772 48.7041 18.3412 48.7041H18.3394Z" fill="#FF9955"/>
<path d="M25.6838 47.552C25.5619 47.552 25.4578 47.6439 25.4419 47.7648C25.2628 48.8786 24.9244 49.9623 24.4425 50.9889C24.4416 50.9926 24.4388 50.9964 24.4369 51.0001C24.4266 51.0217 24.421 51.0339 24.4172 51.0423L24.4153 51.0479C24.4069 51.0658 24.3975 51.0845 24.3881 51.107C24.3863 51.1108 24.3825 51.1164 24.3788 51.1239C24.2644 51.3592 24.1435 51.5889 24.0141 51.8158V51.8176H24.0122C23.9878 51.8561 23.9756 51.902 23.9756 51.9479C23.9756 52.082 24.0835 52.1917 24.2175 52.1917C24.3066 52.1917 24.3891 52.1439 24.4322 52.0651C24.5681 51.8242 24.7013 51.5804 24.8222 51.3311V51.3283C24.8241 51.3245 24.826 51.3208 24.8278 51.317C24.8391 51.2954 24.8475 51.2758 24.855 51.2579C24.855 51.2579 24.856 51.2561 24.8569 51.2561L24.8588 51.2523V51.2504C24.8616 51.2448 24.8672 51.2317 24.8785 51.2083C24.8813 51.2017 24.8831 51.197 24.8841 51.1951C25.3838 50.1292 25.7372 49.0042 25.9238 47.8464V47.8445C25.9266 47.8276 25.9275 47.8117 25.9275 47.7967C25.9275 47.6636 25.8178 47.552 25.6838 47.552Z" fill="#FF9955"/>
<path d="M24.0028 47.0503C23.88 47.0503 23.775 47.1431 23.759 47.265C23.6194 48.2812 23.324 49.2815 22.8797 50.2331C22.8609 50.2687 22.8525 50.3081 22.8525 50.3465C22.8525 50.4806 22.9622 50.5903 23.0962 50.5903C23.1947 50.5903 23.2837 50.5303 23.3212 50.4384H23.3231C23.7853 49.4475 24.0965 48.4059 24.2437 47.34C24.2465 47.3231 24.2456 47.309 24.2456 47.2959C24.2465 47.1609 24.1378 47.0503 24.0028 47.0503Z" fill="#FF9955"/>
<path d="M20.0006 46.8123C19.8853 46.8179 19.7859 46.9023 19.7681 47.0176C19.6678 47.5398 19.4925 48.0891 19.2497 48.5982C18.9272 49.276 18.4744 49.9032 18.0047 50.3729C18.0019 50.3766 18 50.3813 17.9991 50.386C17.9062 50.4769 17.8359 50.5688 17.7881 50.6504C17.7609 50.6907 17.7478 50.7376 17.7478 50.7863C17.7478 50.9204 17.8575 51.0319 17.9916 51.0319C18.0816 51.0319 18.1641 50.9813 18.2062 50.9016H18.2081C18.2409 50.8444 18.2859 50.7807 18.3506 50.7188H18.3516C18.8634 50.2069 19.3434 49.5357 19.6903 48.8073C19.9509 48.2598 20.1384 47.6757 20.2472 47.1132C20.2519 47.0935 20.2528 47.0748 20.2528 47.056C20.2528 46.9219 20.145 46.8123 20.0109 46.8123C20.0081 46.8123 20.0034 46.8123 20.0006 46.8123Z" fill="#FF9955"/>
<path d="M16.4625 46.6331C16.3584 46.6377 16.2647 46.7062 16.2356 46.8074C16.1991 46.9143 16.1606 47.0184 16.1203 47.1037C15.9863 47.384 15.7106 47.759 15.5578 47.9127C15.5569 47.9146 15.555 47.9174 15.5541 47.9202C15.5166 47.9568 15.4791 47.9943 15.4444 48.0318C15.3984 48.0777 15.375 48.1396 15.375 48.2043C15.375 48.3384 15.4847 48.4481 15.6187 48.4481C15.6872 48.4481 15.7519 48.419 15.7978 48.3674H15.7997C15.8334 48.3309 15.8681 48.2952 15.9037 48.2596C16.1053 48.0571 16.3988 47.6549 16.5609 47.3146C16.6106 47.2106 16.6556 47.0934 16.6969 46.9724C16.71 46.9415 16.7138 46.9068 16.7138 46.8749C16.7138 46.7409 16.6059 46.6331 16.4719 46.6331C16.4691 46.6331 16.4672 46.6331 16.4644 46.6331H16.4625Z" fill="#FF9955"/>
<path d="M21.2213 46.3894C21.1238 46.3848 21.0291 46.4391 20.985 46.5319C20.9691 46.5648 20.9606 46.5976 20.9597 46.6294V46.6313H20.9578C20.8753 47.4273 20.6419 48.2851 20.2622 49.081C19.8825 49.8769 19.365 50.5988 18.7988 51.1651C18.7988 51.1651 18.7978 51.1669 18.7969 51.1688C18.7734 51.1885 18.7538 51.2185 18.7378 51.2513C18.6797 51.3751 18.7313 51.5241 18.8559 51.5823C18.9534 51.6291 19.0716 51.6057 19.1456 51.5269H19.1475C19.7541 50.9251 20.2866 50.1723 20.6897 49.3369V49.3351C20.6963 49.3201 20.7038 49.3069 20.7094 49.2929C20.715 49.2788 20.7225 49.2638 20.7291 49.2488C21.1228 48.4098 21.3731 47.5219 21.4575 46.6726C21.4725 46.5657 21.4144 46.4588 21.3169 46.4129C21.2906 46.4007 21.2625 46.396 21.2344 46.3932C21.2306 46.3913 21.2259 46.3894 21.2213 46.3894Z" fill="#FF9955"/>
<path d="M18.3647 46.0125C18.2372 46.0125 18.1312 46.1118 18.1228 46.2393C18.119 46.2703 18.1134 46.3012 18.1097 46.3368C18.0628 46.7868 17.9109 47.3606 17.6775 47.849C17.444 48.3375 17.0962 48.8156 16.7765 49.1362C16.6584 49.2515 16.5619 49.3668 16.4803 49.4746C16.4465 49.5178 16.4306 49.5721 16.4306 49.6246C16.4306 49.7587 16.5403 49.8684 16.6744 49.8684C16.754 49.8684 16.8309 49.8281 16.8759 49.7625C16.9462 49.6687 17.0287 49.5712 17.1319 49.4709V49.469C17.49 49.1062 17.8612 48.5934 18.1172 48.0571C18.3731 47.5209 18.5381 46.9078 18.5934 46.4015C18.5962 46.365 18.6019 46.3284 18.6065 46.2918V46.29C18.6084 46.2768 18.6084 46.2665 18.6084 46.2553C18.6084 46.1221 18.4997 46.0125 18.3647 46.0125Z" fill="#FF9955"/>
<path d="M21.1725 45.2747C20.6775 45.2926 20.2022 45.5747 19.9772 46.0435L19.9753 46.0454L19.9734 46.0472L19.9716 46.0491C19.965 46.0641 19.9594 46.0801 19.9528 46.0951C19.9341 46.1307 19.9275 46.1701 19.9275 46.2085C19.9275 46.3435 20.0362 46.4541 20.1712 46.4541C20.2744 46.4541 20.3672 46.3894 20.4019 46.291C20.4066 46.2797 20.4094 46.2676 20.4131 46.2601H20.415V46.2582L20.4169 46.2544C20.5716 45.9319 20.9091 45.7472 21.2503 45.7604C21.3647 45.7651 21.4791 45.7913 21.5869 45.8429C21.9253 46.0041 22.1259 46.3688 22.0772 46.7476V46.7494C22.0284 47.2313 21.9309 47.716 21.7912 48.1997V48.2016V48.2035C21.7791 48.2326 21.7725 48.2635 21.7725 48.2954C21.7725 48.4294 21.8822 48.5391 22.0162 48.5391C22.1316 48.5391 22.2319 48.4594 22.2562 48.3469V48.3451C22.4044 47.836 22.5075 47.3194 22.56 46.8066C22.6341 46.2188 22.3228 45.6535 21.7969 45.4022H21.7959C21.7941 45.4022 21.7922 45.4004 21.7922 45.4004C21.7922 45.4004 21.7903 45.4004 21.7884 45.4004C21.6225 45.3226 21.4491 45.2822 21.2737 45.2757C21.2391 45.2729 21.2053 45.2729 21.1725 45.2747Z" fill="#FF9955"/>
<path d="M22.785 45.1829C22.6491 45.1829 22.5394 45.2925 22.5394 45.4285C22.5394 45.4875 22.561 45.5447 22.5994 45.5897C22.8619 45.9432 22.9903 46.3932 22.9322 46.8554C22.8253 47.8819 22.5356 48.9085 22.0791 49.8825C22.0763 49.8891 22.0763 49.8919 22.0772 49.8882C22.0706 49.9032 22.0622 49.9172 22.0556 49.9322C22.0481 49.9491 22.0397 49.9641 22.0322 49.9819C22.0313 49.9838 22.0313 49.9838 22.0313 49.9838C21.69 50.6907 21.2691 51.346 20.7825 51.9319C20.7431 51.9769 20.7234 52.036 20.7234 52.095C20.7234 52.2301 20.8322 52.3388 20.9672 52.3388C21.045 52.3388 21.1172 52.3022 21.1631 52.2404C21.6741 51.6235 22.1166 50.9382 22.4738 50.1985C22.4738 50.1985 22.4747 50.1966 22.4756 50.1947C22.4756 50.1947 22.4766 50.1929 22.4775 50.191C22.4869 50.1722 22.4934 50.1563 22.5009 50.1394C22.5075 50.1254 22.515 50.1132 22.5206 50.0991C22.5197 50.101 22.5206 50.0982 22.5244 50.0916C23.0016 49.0735 23.3053 47.9982 23.4197 46.9144V46.9125C23.4938 46.3191 23.3269 45.7407 22.9875 45.2888V45.2869C22.9425 45.2213 22.8656 45.1829 22.785 45.1829Z" fill="#FF9955"/>
<path d="M21.15 44.4067C20.3372 44.4357 19.5534 44.9045 19.1869 45.6742C19.1859 45.677 19.185 45.6798 19.185 45.6798C19.1053 45.8486 19.0069 46.0904 18.9759 46.4307C18.9225 46.9361 18.7697 47.5286 18.5325 48.0695C18.5156 48.1032 18.5081 48.1398 18.5081 48.1782C18.5081 48.3142 18.6178 48.4239 18.7537 48.4239C18.855 48.4239 18.9478 48.3639 18.9844 48.2682V48.2664C19.2412 47.6786 19.4062 47.0476 19.4662 46.4889V46.487L19.4681 46.4739C19.4916 46.2132 19.5656 46.0257 19.6294 45.8917V45.8898L19.6312 45.8879V45.8861H19.6331V45.8842C19.9191 45.2832 20.5294 44.9195 21.1641 44.897C21.2062 44.8951 21.2494 44.8951 21.2925 44.897C21.5175 44.9054 21.7425 44.957 21.9553 45.0582C21.9562 45.0592 21.9572 45.0601 21.9591 45.0601C21.9703 45.0657 21.9816 45.0723 21.9937 45.0789C22.035 45.1061 22.0837 45.1173 22.1306 45.1173C22.2656 45.1173 22.3762 45.0095 22.3762 44.8736C22.3762 44.7723 22.3144 44.6776 22.2187 44.6411H22.2159C22.2037 44.6345 22.1916 44.6279 22.1775 44.6214C22.1766 44.6204 22.1756 44.6195 22.1737 44.6195C22.1719 44.6176 22.17 44.6167 22.1681 44.6157C21.8944 44.4854 21.6028 44.4179 21.3131 44.4067C21.2587 44.4048 21.2053 44.4048 21.1519 44.4067C21.1519 44.4067 21.1509 44.4067 21.15 44.4067Z" fill="#FF9955"/>
<path d="M24.0563 43.9905C23.9222 43.9905 23.8125 44.0983 23.8125 44.2324C23.8125 44.2933 23.8322 44.357 23.8762 44.403C24.4772 45.1258 24.7819 46.082 24.66 47.0655C24.6066 47.567 24.5156 48.062 24.3928 48.5505C24.3844 48.5758 24.3816 48.6039 24.3816 48.6292C24.3816 48.7633 24.4912 48.8711 24.6253 48.8711C24.7425 48.8711 24.8438 48.7886 24.8653 48.6733V48.6714C24.9938 48.1614 25.0875 47.6439 25.1438 47.1208C25.2806 46.0042 24.9375 44.9158 24.2559 44.0936L24.2541 44.0917C24.2081 44.028 24.1341 43.9905 24.0563 43.9905Z" fill="#FF9955"/>
<path d="M20.7731 43.5769C20.7525 43.5769 20.729 43.5769 20.7056 43.5844C19.7344 43.7513 18.8465 44.3644 18.4022 45.2982C18.3994 45.3038 18.3975 45.3085 18.3984 45.3057C18.3975 45.3075 18.3975 45.3094 18.3965 45.3113C18.3759 45.3478 18.3656 45.3891 18.3656 45.4303C18.3656 45.5644 18.4753 45.6741 18.6094 45.6741C18.7097 45.6741 18.7997 45.6141 18.8362 45.5203L18.8381 45.5185C18.8381 45.5166 18.8381 45.5157 18.84 45.5128C18.84 45.5119 18.8409 45.5091 18.8419 45.5072H18.8437C19.2206 44.716 19.9753 44.1985 20.7994 44.0607C20.9231 44.0475 21.015 43.9416 21.015 43.8169C21.015 43.6828 20.9062 43.5769 20.7731 43.5769Z" fill="#FF9955"/>
<path d="M21.6244 43.5637C21.4941 43.5684 21.39 43.6772 21.39 43.8075C21.39 43.9368 21.4913 44.0456 21.6206 44.0531C21.8616 44.0897 22.1006 44.159 22.3294 44.2678C22.3313 44.2687 22.3331 44.2697 22.335 44.2697C23.1816 44.6737 23.7375 45.5034 23.8088 46.4306C23.8097 46.5647 23.9194 46.6762 24.0544 46.6762C24.1894 46.6762 24.2981 46.5675 24.2981 46.4325C24.2981 46.4268 24.2991 46.4175 24.2981 46.4072V46.4053C24.2156 45.3028 23.5519 44.3118 22.5441 43.8309L22.5431 43.829H22.5385C22.2647 43.6987 21.9788 43.6143 21.6891 43.5731C21.6713 43.5693 21.6525 43.5656 21.6338 43.5656C21.631 43.5637 21.6272 43.5637 21.6244 43.5637Z" fill="#FF9955"/>
<path d="M17.5885 43.5571C17.5116 43.5609 17.4394 43.5984 17.3963 43.6612C17.1835 43.9321 16.9978 44.2303 16.8432 44.5546C16.8422 44.5574 16.8403 44.5621 16.8375 44.5678C16.7053 44.8462 16.5038 45.3487 16.4166 45.9796C16.4166 45.9815 16.4166 45.9853 16.4166 45.9871V45.989C16.4147 46.0021 16.4128 46.0124 16.4128 46.0256C16.4128 46.1596 16.5225 46.2693 16.6566 46.2693C16.7822 46.2693 16.8863 46.1737 16.8985 46.0499C16.9763 45.4809 17.1572 45.0337 17.2791 44.7759V44.774C17.28 44.7731 17.2819 44.7721 17.2828 44.7703C17.2828 44.7693 17.2828 44.7674 17.2828 44.7665C17.4207 44.4768 17.5875 44.2106 17.7769 43.9678L17.7788 43.9659C17.8191 43.9199 17.8407 43.8618 17.8407 43.8009C17.8407 43.6668 17.731 43.5571 17.5969 43.5571C17.595 43.5571 17.5922 43.5571 17.5885 43.5571Z" fill="#FF9955"/>
<path d="M19.4615 43.1138C19.4194 43.1138 19.3772 43.1231 19.3387 43.1447C18.6112 43.5291 17.9972 44.1356 17.6212 44.926L17.6203 44.9278C17.6184 44.9306 17.6175 44.9335 17.6165 44.9353C17.49 45.2006 17.3072 45.6544 17.25 46.2469C17.2153 46.5797 17.0803 47.0916 16.8965 47.4778C16.7137 47.8622 16.4025 48.2878 16.1662 48.525H16.1681C16.08 48.6113 16.0022 48.6975 15.93 48.7828C15.8897 48.8278 15.8681 48.885 15.8681 48.946C15.8681 49.08 15.9778 49.1897 16.1119 49.1897C16.1887 49.1897 16.2619 49.1541 16.3078 49.0922V49.0903C16.3687 49.0172 16.4362 48.9441 16.5131 48.8691C16.7962 48.585 17.1281 48.1294 17.339 47.686C17.55 47.2425 17.6934 46.7006 17.7365 46.3013C17.7853 45.7753 17.9409 45.3891 18.0572 45.1444V45.1425C18.0572 45.1425 18.06 45.1406 18.0628 45.135C18.39 44.4488 18.9253 43.9181 19.5609 43.5806L19.5647 43.5788C19.6528 43.5403 19.7072 43.4531 19.7072 43.3575C19.7053 43.2235 19.5956 43.1138 19.4615 43.1138Z" fill="#FF9955"/>
<path d="M21.0984 42.6741C20.7994 42.6854 20.505 42.7313 20.2181 42.8063C20.1066 42.8307 20.0259 42.931 20.0259 43.0444C20.0259 43.1785 20.1356 43.2882 20.2697 43.2882C20.295 43.2882 20.3213 43.2844 20.3466 43.2751H20.3503C20.6006 43.2113 20.8566 43.171 21.1153 43.1616C21.1997 43.1588 21.285 43.1579 21.3694 43.1616C21.8213 43.1785 22.2759 43.2844 22.7044 43.4879L22.7081 43.4897H22.71L22.7119 43.4916C22.9097 43.5872 23.0953 43.6988 23.2688 43.8263C23.3128 43.8638 23.3691 43.8835 23.4263 43.8835C23.5603 43.8835 23.67 43.7738 23.67 43.6397C23.67 43.5591 23.6297 43.4832 23.5622 43.4382L23.5603 43.4363C23.3616 43.2901 23.1478 43.1588 22.9191 43.0501H22.9172L22.9153 43.0482C22.425 42.8147 21.9028 42.6947 21.3881 42.6769C21.2916 42.6722 21.195 42.6704 21.0984 42.6741Z" fill="#FF9955"/>
<path d="M22.2215 41.9148C22.0875 41.9148 21.9778 42.0245 21.9778 42.1585C21.9778 42.2776 22.0622 42.3798 22.1793 42.4004C22.4859 42.4679 22.7887 42.5692 23.0822 42.7079C23.0822 42.7079 23.0822 42.7079 23.0859 42.7098C24.6797 43.471 25.6593 45.1398 25.5468 46.9098C25.5459 46.9201 25.545 46.9295 25.545 46.9389C25.545 47.0729 25.6547 47.1826 25.7887 47.1826C25.9209 47.1826 26.0306 47.0785 26.0343 46.9464V46.9445C26.1609 44.9739 25.0697 43.1167 23.295 42.2701L23.2931 42.2682C22.9678 42.1135 22.6303 41.9992 22.2918 41.9242C22.2675 41.9167 22.2431 41.9148 22.2215 41.9148Z" fill="#FF9955"/>
<path d="M21.2475 41.8079C21.1884 41.8079 21.1303 41.8079 21.0712 41.8097C19.9622 41.8482 18.8897 42.2588 18.0459 42.9816C17.9869 43.0275 17.954 43.1007 17.954 43.1757C17.954 43.3097 18.0637 43.4194 18.1978 43.4194C18.2615 43.4194 18.3244 43.395 18.3703 43.35H18.3722C19.1306 42.7041 20.0934 42.3319 21.089 42.2972C21.1725 42.2944 21.2578 42.2954 21.3422 42.2972C21.3525 42.2982 21.36 42.2972 21.3637 42.2972C21.4978 42.2972 21.6075 42.1875 21.6075 42.0535C21.6075 41.9185 21.494 41.8097 21.36 41.8097C21.3225 41.8088 21.284 41.8079 21.2475 41.8079Z" fill="#FF9955"/>
<path d="M28.37 36.3975V44.5804C28.37 45.6201 29.208 46.4609 30.2487 46.4609H34.4619H38.6752C39.7149 46.4609 40.5557 45.6211 40.5557 44.5804V43.6667C40.3466 43.3302 40.1139 42.9566 39.8617 42.5535V42.6249C39.8617 42.9474 39.6029 43.2072 39.2794 43.2072H29.6462C29.3237 43.2072 29.064 42.9474 29.064 42.6249V36.3975H28.37ZM33.5812 44.2618H35.3427C35.502 44.2618 35.632 44.3899 35.632 44.5493V44.9229C35.632 45.0822 35.502 45.2085 35.3427 45.2085H33.5812C33.4218 45.2085 33.2955 45.0822 33.2955 44.9229V44.5493C33.2955 44.389 33.4218 44.2618 33.5812 44.2618Z" fill="#3973B7"/>
<path d="M30.2487 26.2754C29.208 26.2754 28.37 27.1116 28.37 28.1522V35.0791H29.064V28.8389C29.064 28.5154 29.3228 28.2566 29.6462 28.2566H39.2776C39.6001 28.2566 39.8599 28.5154 39.8599 28.8389V35.4893L40.4348 35.9379C40.4676 35.7222 40.4695 35.5003 40.5538 35.3007V28.1541C40.5538 27.1134 39.714 26.2772 38.6733 26.2772H34.4601H30.2487V26.2754ZM32.9055 26.9932H36.022C36.1438 26.9932 36.2417 27.091 36.2417 27.2129C36.2417 27.3348 36.1438 27.4344 36.022 27.4344H32.9055C32.7836 27.4344 32.684 27.3348 32.684 27.2129C32.684 27.091 32.7836 26.9932 32.9055 26.9932Z" fill="#3973B7"/>
<path d="M21.271 19.5444C20.7695 19.52 20.2493 19.5971 19.7787 19.8099C19.5368 19.9205 19.3229 20.0759 19.1232 20.2475C18.8907 20.2822 18.6621 20.342 18.453 20.4489C17.9862 20.688 17.6258 21.0898 17.4148 21.5585C17.1692 22.1042 17.1359 22.6848 17.1237 23.223C17.1152 23.6298 17.1389 24.0356 17.1548 24.4424C17.1286 24.4593 17.1005 24.4749 17.0724 24.4974C16.989 24.5639 16.8437 24.6858 16.7593 24.8874C16.6834 25.0702 16.6924 25.2388 16.6952 25.3232C16.7008 25.5229 16.7183 25.7231 16.7483 25.9238C16.8093 26.3372 16.9295 26.8018 17.2464 27.1927C17.3429 27.3118 17.457 27.4031 17.5723 27.4875C17.6773 27.8578 17.8123 28.2318 18.041 28.5843C18.4807 29.2612 19.1486 29.754 19.8996 30.0034C20.2689 30.1252 20.6576 30.1901 21.0495 30.192H21.0513H21.055H21.0568C21.4487 30.1901 21.8355 30.1262 22.2049 30.0034C22.9558 29.754 23.6265 29.2612 24.0652 28.5843C24.2771 28.258 24.407 27.9112 24.512 27.5681C24.677 27.4659 24.8404 27.3511 24.9679 27.1927C25.2848 26.8018 25.405 26.3372 25.466 25.9238C25.496 25.7231 25.5125 25.5238 25.5191 25.3232C25.5219 25.2388 25.5327 25.0702 25.4568 24.8874C25.3724 24.6858 25.2253 24.5639 25.1419 24.4974C25.1353 24.4918 25.1283 24.4884 25.1217 24.4827C25.1339 24.3984 25.1545 24.3144 25.1638 24.23C25.2173 23.7416 25.2352 23.2403 25.1602 22.7359C25.0861 22.2306 24.919 21.7263 24.6255 21.2875C24.1633 20.5966 23.4462 20.1461 22.7084 19.863C22.2528 19.6914 21.7716 19.5697 21.271 19.5444ZM19.4143 21.9943C19.7612 22.3581 20.1689 22.6614 20.6283 22.8696C21.2283 23.1405 21.8974 23.2601 22.5546 23.201C22.9137 23.1691 23.2457 23.0851 23.5635 23.0289C23.6713 23.0101 23.7388 23.0122 23.7613 23.0197C23.7781 23.0253 23.8109 23.0454 23.84 23.0838C23.8709 23.1241 23.9052 23.1855 23.937 23.2614C24.0861 23.6233 24.1555 24.0211 24.1714 24.4223H24.1769V24.4553C24.1732 24.6362 24.2675 24.8056 24.4241 24.8965C24.515 24.949 24.6026 25.0076 24.6823 25.0723C24.7535 25.1295 24.7653 25.1459 24.7757 25.1694C24.785 25.19 24.7876 25.2075 24.7848 25.3012C24.7801 25.4765 24.7653 25.6488 24.739 25.8176C24.6865 26.171 24.5906 26.4941 24.3985 26.7313C24.3188 26.8288 24.2084 26.919 24.0762 26.9931C23.9618 27.0569 23.8784 27.1614 23.8418 27.2861C23.7481 27.6095 23.6262 27.9114 23.45 28.1833C23.1078 28.7102 22.5741 29.1079 21.976 29.3057C21.6797 29.4032 21.369 29.454 21.0568 29.4559H21.0513C20.7391 29.454 20.4265 29.4042 20.1303 29.3057C19.5312 29.1079 18.9994 28.7102 18.6581 28.1833C18.4687 27.8917 18.3426 27.5671 18.2479 27.2165C18.217 27.1031 18.1468 27.0029 18.0502 26.9363C17.9499 26.867 17.8711 26.7979 17.8158 26.7294C17.6227 26.4922 17.5277 26.1692 17.4752 25.8157C17.4499 25.647 17.4351 25.4747 17.4295 25.2994C17.4267 25.2056 17.4292 25.1909 17.4386 25.1694C17.448 25.1469 17.4644 25.1305 17.5357 25.0723C17.5722 25.0433 17.6291 25.0048 17.706 24.9551C17.8513 24.8614 17.9377 24.6983 17.933 24.5248C17.9274 24.3308 17.9249 24.1429 17.9202 23.9536C17.8808 23.4051 18.1531 22.8005 18.5263 22.4667C18.7747 22.238 19.0853 22.075 19.4143 21.9943Z" fill="#3973B7"/>
<path d="M47.6916 33.3873C47.4235 33.4211 47.1694 33.558 46.9885 33.7905C46.635 34.2442 46.7063 34.8845 47.1441 35.2501C47.146 35.2511 47.1497 35.2539 47.1516 35.2558L47.5856 35.5923C47.6681 35.6561 47.6813 35.7686 47.6166 35.8501C47.5528 35.9317 47.4422 35.9448 47.3606 35.8811L46.9491 35.5605L45.6506 34.5461C45.1875 34.1833 44.5275 34.2648 44.1656 34.7289C43.8085 35.1864 43.8844 35.8361 44.3325 36.1989C44.3344 36.1998 44.3363 36.2017 44.3381 36.2026L45.7003 37.2705C45.7772 37.3342 45.7894 37.4448 45.7275 37.5236C45.6647 37.6042 45.5541 37.6183 45.4735 37.5545H45.4716L44.1347 36.5073L44.1544 36.5289C44.1375 36.5092 44.1253 36.5008 44.1197 36.4961L44.116 36.4923L44.1122 36.4886L44.1094 36.4876L42.6572 35.358C42.1941 34.997 41.5341 35.0767 41.1722 35.5408C40.8103 36.0048 40.8928 36.6658 41.3569 37.0277L44.3175 39.333C44.3888 39.3958 44.4 39.5073 44.3391 39.5842C44.2763 39.6648 44.1628 39.6808 44.0831 39.617L37.7494 34.6801C37.2863 34.3192 36.6263 34.4008 36.2644 34.8648C35.9025 35.3289 35.985 35.9898 36.4491 36.3517L44.1872 42.378C44.2688 42.4417 44.2847 42.5514 44.22 42.632C44.16 42.7098 44.0391 42.723 43.9585 42.6592L41.0728 40.413L41.0653 40.4073C41.0606 40.4036 41.0578 40.3998 41.0522 40.3961C41.0485 40.3933 41.0447 40.3923 41.041 40.3905C40.8056 40.2423 40.6453 40.158 40.4625 40.1392C40.2581 40.1186 40.0913 40.1776 39.9788 40.2508L39.9769 40.2526C39.9253 40.2873 39.8869 40.323 39.8578 40.3548C39.8485 40.3651 39.8428 40.3736 39.8381 40.3802C39.8344 40.3839 39.8166 40.4055 39.8091 40.4167C39.8081 40.4186 39.8053 40.4205 39.8053 40.4223C39.7969 40.4373 39.7885 40.4514 39.7838 40.4683C39.7838 40.4702 39.7838 40.4701 39.7838 40.472C39.7838 40.472 39.781 40.4786 39.7763 40.4973L39.7819 40.4955C39.7547 40.5733 39.7247 40.6764 39.7378 40.7955C39.7547 40.9455 39.8166 41.1461 39.9628 41.4348C40.2572 42.0133 40.9022 42.9255 41.2706 43.5536C41.6391 44.1817 41.7113 44.4892 41.9541 44.8426C42.1941 45.1923 42.615 45.6114 43.3369 46.0164C44.0606 46.4223 45.0872 46.8077 45.9497 46.8517C46.8122 46.8958 47.5472 46.6061 48.3122 46.4523C49.0744 46.2986 49.801 46.3023 50.3119 46.3933C50.8172 46.4842 51.1238 46.683 51.6816 47.1367C51.7603 47.2005 51.9028 47.3233 52.006 47.4095C52.0266 47.4292 52.0547 47.4423 52.0772 47.4611C52.5722 47.8464 53.2866 47.7583 53.6719 47.2633C53.6813 47.2511 53.6935 47.2436 53.7028 47.2305L56.3485 43.8339C56.3672 43.8133 56.3775 43.787 56.3944 43.7664C56.7797 43.2714 56.6681 42.5317 56.1731 42.1455C55.7578 41.8033 55.3744 41.4752 55.111 41.2042C54.4735 40.5517 54.3563 40.1017 54.2635 39.6789C54.1678 39.2486 54.0638 38.7798 53.8022 38.2783C53.5397 37.7758 53.1122 37.2255 52.7438 36.872C52.3753 36.5195 52.0575 36.3489 51.526 35.973V35.9711C50.9972 35.5961 50.2866 35.0233 49.5685 34.457V34.4551L48.4716 33.6039C48.2391 33.4239 47.9597 33.3536 47.6916 33.3873Z" fill="#3973B7"/>
<path d="M21.0113 30.8364C20.8172 30.8364 20.6597 30.9921 20.6597 31.1861V40.2939C20.6597 40.488 20.8172 40.6436 21.0113 40.6436C21.2054 40.6436 21.361 40.488 21.361 40.2939V36.092H35.01C35.2041 36.092 35.3597 35.9345 35.3597 35.7405C35.3597 35.5464 35.2041 35.3908 35.01 35.3908H21.361V31.187C21.361 30.992 21.2054 30.8364 21.0113 30.8364Z" fill="#3973B7"/>
</svg>
