<svg width="72" height="72" viewBox="0 0 72 72" fill="none" xmlns="http://www.w3.org/2000/svg">
<rect width="72" height="72" rx="36" fill="#F8F6F0"/>
<path d="M49.1012 35.1284C48.1862 35.1284 47.2756 35.1916 46.3766 35.3079C45.6735 35.3744 45.047 35.7869 44.7048 36.4047C44.1058 37.39 43.3312 38.3141 42.4087 39.1494C41.8846 39.5563 41.5811 40.1849 41.5811 40.8486C41.5811 41.0755 41.6151 41.3004 41.6854 41.517C42.0801 42.8829 42.6074 44.2102 43.2693 45.4702C44.3971 47.6237 45.9363 49.6068 47.9238 51.0403C48.2595 51.2962 48.682 51.434 49.1049 51.434C49.5277 51.434 49.9475 51.2972 50.2841 51.0403C52.2716 49.6068 53.8126 47.6227 54.9404 45.4702C55.6014 44.2102 56.1278 42.8829 56.5225 41.517C56.5909 41.3004 56.625 41.0755 56.625 40.8486C56.625 40.1858 56.3233 39.5563 55.7992 39.1494C54.8767 38.3141 54.1048 37.3918 53.5067 36.4065H53.5012C53.159 35.7887 52.5326 35.3781 51.8295 35.3115V35.3079C50.9304 35.1916 50.0171 35.1284 49.103 35.1284H49.1012ZM52.2836 39.7006H52.2854C52.6098 39.694 52.7592 40.106 52.5033 40.3066C51.6042 41.0173 50.8177 41.8662 50.1962 42.8262C49.7199 43.5621 49.332 44.3576 49.0554 45.1901C48.942 45.5679 48.5941 45.8291 48.1985 45.8291C48.1225 45.8291 48.0491 45.8158 47.9788 45.798C47.9422 45.7895 47.9064 45.78 47.8707 45.7668C47.8567 45.7612 47.8436 45.7542 47.8286 45.7467C47.643 45.668 47.4813 45.5358 47.38 45.3549L46.014 43.1649C45.9465 43.0496 45.9133 42.9154 45.9133 42.7822C45.9133 42.3707 46.2433 42.0353 46.6549 42.0278H46.6677C46.9002 42.0278 47.1212 42.1343 47.2646 42.319L47.9824 43.2601C48.2037 42.8645 48.4565 42.483 48.7368 42.1249C49.3593 41.3289 50.1281 40.6271 51.0403 40.1565C51.4134 39.9643 51.8035 39.8166 52.2067 39.7097C52.2301 39.705 52.2583 39.7006 52.2836 39.7006Z" fill="#FF9955"/>
<path d="M33.616 26.7458C33.241 26.7458 32.9403 27.0483 32.9403 27.4233V29.0713C32.9403 29.4463 33.241 29.7488 33.616 29.7488H40.1327H45.7705H46.2466C46.6216 29.7488 46.9222 29.4463 46.9222 29.0713V27.4233C46.9222 27.0483 46.6225 26.7458 46.2466 26.7458H45.7705H40.1327H33.616ZM34.3466 28.0312H43.5275C43.6493 28.0312 43.7417 28.1218 43.7417 28.2437C43.7417 28.3655 43.6475 28.4652 43.5275 28.4652H34.3466C34.2266 28.4652 34.1323 28.3655 34.1323 28.2437C34.1323 28.1218 34.2247 28.0312 34.3466 28.0312ZM33.616 30.3585C33.241 30.3585 32.9403 30.661 32.9403 31.036V32.6821C32.9403 33.0571 33.241 33.3596 33.616 33.3596H40.1309H45.7705H46.2448C46.6198 33.3596 46.9222 33.0571 46.9222 32.6821V31.036C46.9222 30.661 46.6207 30.3585 46.2448 30.3585H45.7705H40.1309H33.616ZM35.1742 30.9335C35.2089 30.9307 35.2422 30.9394 35.2712 30.9591C35.3087 30.9854 35.3335 31.0322 35.3335 31.0781V31.4828L35.6411 31.3015C35.6927 31.2715 35.7618 31.2777 35.8077 31.3162L35.9194 31.4114C35.9551 31.4414 35.9745 31.4881 35.9707 31.5341C35.967 31.58 35.9387 31.6241 35.8993 31.6476L35.5404 31.86L35.8993 32.076C35.9387 32.0995 35.967 32.1418 35.9707 32.1877C35.9745 32.2337 35.9551 32.2823 35.9194 32.3123L35.8077 32.4056C35.7618 32.4441 35.6927 32.4485 35.6411 32.4185L35.3335 32.2372V32.5924V32.5942C35.3335 32.6533 35.2945 32.7119 35.2383 32.7316L35.0991 32.781C35.056 32.7969 35.0048 32.7899 34.9673 32.7627C34.9298 32.7355 34.905 32.6896 34.905 32.6437V32.2372L34.5992 32.4185C34.5477 32.4485 34.4786 32.4441 34.4326 32.4056L34.3191 32.3123C34.2835 32.2823 34.2641 32.2337 34.2678 32.1877C34.2716 32.1418 34.2999 32.0995 34.3392 32.076L34.7 31.86L34.3392 31.6476C34.2999 31.6241 34.2716 31.58 34.2678 31.5341C34.2641 31.4881 34.2835 31.4395 34.3191 31.4095L34.4326 31.3162C34.4786 31.2777 34.5477 31.2715 34.5992 31.3015L34.905 31.4828V31.1257C34.905 31.0667 34.9449 31.0099 35.0021 30.9902L35.1412 30.9408C35.1515 30.938 35.1629 30.9344 35.1742 30.9335ZM37.5802 30.9335C37.6149 30.9307 37.651 30.9394 37.6791 30.9591C37.7166 30.9854 37.7395 31.0322 37.7395 31.0781V31.4828L38.0453 31.3015C38.0969 31.2715 38.166 31.2777 38.2119 31.3162L38.3254 31.4114C38.3601 31.4414 38.3805 31.4881 38.3767 31.5341C38.373 31.58 38.3456 31.6241 38.3053 31.6476L37.9446 31.86L38.3053 32.076C38.3456 32.0995 38.373 32.1418 38.3767 32.1877C38.3805 32.2337 38.3611 32.2823 38.3254 32.3123L38.2119 32.4056C38.166 32.4441 38.0969 32.4485 38.0453 32.4185L37.7395 32.2372V32.5924V32.5942C37.7395 32.6533 37.6996 32.7119 37.6425 32.7316L37.5033 32.781C37.4592 32.7969 37.4108 32.7899 37.3733 32.7627C37.3358 32.7355 37.311 32.6896 37.311 32.6437V32.2372L37.0052 32.4185C36.9537 32.4485 36.8827 32.4441 36.8368 32.4056L36.7251 32.3123C36.6904 32.2823 36.6701 32.2346 36.6738 32.1877C36.6776 32.1409 36.7049 32.0995 36.7452 32.076L37.1041 31.86L36.7452 31.6476C36.7049 31.6241 36.6776 31.58 36.6738 31.5341C36.6701 31.4881 36.6895 31.4414 36.7251 31.4114L36.8368 31.3162C36.8827 31.2777 36.9537 31.2715 37.0052 31.3015L37.311 31.4828V31.1257C37.311 31.0667 37.3491 31.0099 37.4062 30.9902H37.4081L37.5454 30.9408C37.5567 30.938 37.569 30.9344 37.5802 30.9335ZM39.9844 30.9335C40.0191 30.9307 40.0551 30.9394 40.0833 30.9591C40.1208 30.9854 40.1437 31.0322 40.1437 31.0781V31.4828L40.4476 31.3015C40.4992 31.2715 40.572 31.2777 40.6179 31.3162L40.7296 31.4114C40.7643 31.4414 40.7846 31.4881 40.7809 31.5341C40.7771 31.58 40.7516 31.6241 40.7113 31.6476L40.3506 31.86L40.7113 32.076C40.7516 32.0995 40.7771 32.1418 40.7809 32.1877C40.7846 32.2337 40.7652 32.2823 40.7296 32.3123L40.6161 32.4056C40.5702 32.4441 40.4992 32.4485 40.4476 32.4185L40.1437 32.2372V32.5924V32.5942C40.1437 32.6533 40.102 32.7119 40.0448 32.7316L39.9093 32.781C39.8652 32.7969 39.8131 32.7899 39.7756 32.7627C39.7381 32.7355 39.7152 32.6896 39.7152 32.6437V32.2372L39.4113 32.4185H39.4094C39.3579 32.4485 39.2869 32.4441 39.241 32.4056L39.1293 32.3123C39.0946 32.2823 39.0724 32.2346 39.0762 32.1877C39.0799 32.1409 39.1073 32.0977 39.1476 32.0742L39.5083 31.8582L39.1476 31.6458C39.1073 31.6223 39.0799 31.5782 39.0762 31.5322C39.0724 31.4863 39.0936 31.4395 39.1293 31.4095L39.241 31.3143C39.2869 31.2759 39.3579 31.2715 39.4094 31.3015H39.4113L39.7152 31.4828V31.1257C39.7152 31.0667 39.756 31.0081 39.8123 30.9884L39.9514 30.939C39.9636 30.9371 39.9731 30.9344 39.9844 30.9335ZM42.3904 30.9335C42.4251 30.9307 42.4611 30.9394 42.4893 30.9591C42.5268 30.9854 42.5479 31.0322 42.5479 31.0781V31.4828L42.8536 31.3015C42.9052 31.2715 42.9762 31.2777 43.0221 31.3162L43.132 31.4114C43.1666 31.4414 43.1888 31.4881 43.1851 31.5341C43.1813 31.58 43.1576 31.6241 43.1173 31.6476L42.7529 31.86L43.1173 32.076C43.1576 32.0995 43.1813 32.1418 43.1851 32.1877C43.1888 32.2337 43.1676 32.2823 43.132 32.3123L43.0221 32.4056C42.9762 32.4441 42.9052 32.4485 42.8536 32.4185L42.5479 32.2372V32.5924V32.5942C42.5479 32.6533 42.5061 32.7119 42.4508 32.7316L42.3135 32.781C42.2694 32.7969 42.2191 32.7899 42.1816 32.7627C42.1441 32.7355 42.1212 32.6896 42.1212 32.6437V32.2372L41.8154 32.4185C41.7639 32.4485 41.6947 32.4441 41.6488 32.4056L41.5353 32.3123C41.5006 32.2823 41.4803 32.2346 41.484 32.1877C41.4878 32.1409 41.5151 32.0995 41.5554 32.076L41.9161 31.86L41.5554 31.6476C41.5151 31.6241 41.4878 31.58 41.484 31.5341C41.4803 31.4881 41.5006 31.4414 41.5353 31.4114L41.6488 31.3162C41.6947 31.2777 41.7639 31.2715 41.8154 31.3015L42.1212 31.4828V31.1257C42.1212 31.0667 42.1592 31.0099 42.2164 30.9902H42.2183L42.3556 30.9408C42.3668 30.938 42.3791 30.9344 42.3904 30.9335ZM44.7946 30.9335H44.7964C44.8311 30.9307 44.8653 30.9394 44.8934 30.9591C44.9309 30.9854 44.9539 31.0322 44.9539 31.0781V31.4828L45.2596 31.3015C45.3112 31.2715 45.3822 31.2777 45.4281 31.3162L45.5398 31.4114C45.5745 31.4414 45.5948 31.4881 45.5911 31.5341C45.5873 31.58 45.5618 31.6241 45.5215 31.6476L45.1589 31.86L45.5215 32.076C45.5618 32.0995 45.5873 32.1418 45.5911 32.1877C45.5948 32.2337 45.5745 32.2823 45.5398 32.3123L45.4281 32.4056C45.3822 32.4441 45.3112 32.4485 45.2596 32.4185L44.9539 32.2372V32.5924V32.5942C44.9539 32.6533 44.914 32.7119 44.8568 32.7316L44.7177 32.781C44.6736 32.7969 44.6251 32.7899 44.5876 32.7627C44.5501 32.7355 44.5254 32.6896 44.5254 32.6437V32.2372L44.2214 32.4185H44.2196C44.168 32.4485 44.0989 32.4441 44.053 32.4056L43.9395 32.3123C43.9048 32.2823 43.8844 32.2346 43.8882 32.1877C43.8919 32.1409 43.9202 32.0995 43.9596 32.076L44.3203 31.86L43.9596 31.6476C43.9193 31.6241 43.8938 31.58 43.89 31.5341C43.8863 31.4881 43.9066 31.4414 43.9413 31.4114L44.053 31.3162C44.0989 31.2777 44.1699 31.2715 44.2214 31.3015L44.5254 31.4828V31.1257C44.5254 31.0667 44.5652 31.0099 44.6224 30.9902L44.7598 30.9408C44.7701 30.938 44.7833 30.9344 44.7946 30.9335Z" fill="#3973B7"/>
<path d="M25.2462 25.4952C24.964 25.4811 24.6701 25.5253 24.4058 25.6453C24.2689 25.7072 24.1493 25.7932 24.0359 25.8907C23.9046 25.9104 23.7759 25.9442 23.6587 26.0042C23.3953 26.1392 23.1936 26.3661 23.0746 26.6304C22.9358 26.9379 22.9163 27.2642 22.9098 27.5679C22.9051 27.7967 22.9187 28.0258 22.9281 28.2546C22.9131 28.264 22.8983 28.2735 22.8823 28.2857C22.8354 28.3232 22.7516 28.392 22.7047 28.5054C22.6616 28.6086 22.6662 28.7048 22.6681 28.7526C22.6718 28.8651 22.6805 28.9771 22.6974 29.0896C22.7321 29.323 22.8003 29.5852 22.9794 29.8055C23.0347 29.873 23.0978 29.9225 23.1625 29.9703C23.2215 30.1784 23.2977 30.3914 23.4261 30.5892C23.6736 30.9707 24.0516 31.2487 24.4753 31.3894C24.6835 31.4587 24.9014 31.4946 25.1217 31.4956H25.1235H25.1254C25.3457 31.4946 25.5654 31.4578 25.7736 31.3894C26.1973 31.2497 26.5716 30.9707 26.8191 30.5892C26.9382 30.4054 27.0145 30.211 27.0736 30.0179C27.1664 29.9598 27.2578 29.8955 27.33 29.8055C27.509 29.5852 27.5772 29.323 27.6119 29.0896C27.6288 28.9761 27.6357 28.8651 27.6394 28.7526C27.6403 28.7048 27.6477 28.6086 27.6046 28.5054C27.5568 28.392 27.4729 28.3232 27.427 28.2857C27.4232 28.2829 27.4198 28.2812 27.416 28.2784C27.4226 28.2306 27.4333 28.1834 27.438 28.1356C27.468 27.8599 27.4783 27.5792 27.4362 27.2951C27.394 27.0101 27.3009 26.726 27.1359 26.4785C26.8762 26.0885 26.4709 25.8349 26.0555 25.6765C25.8005 25.578 25.5284 25.5093 25.2462 25.4952ZM24.2007 26.8758C24.3957 27.0802 24.6267 27.2512 24.8855 27.3684C25.2239 27.5212 25.5992 27.5889 25.9695 27.5551C26.172 27.5364 26.359 27.49 26.5371 27.4581C26.5971 27.4478 26.6357 27.4507 26.6488 27.4544C26.6582 27.4572 26.6759 27.4676 26.6927 27.4892C26.7096 27.5117 26.7299 27.5459 26.7477 27.5881C26.8311 27.7915 26.8701 28.0158 26.8795 28.2418H26.8832V28.2601C26.8804 28.3623 26.9342 28.4594 27.0223 28.5109C27.0739 28.5409 27.122 28.5724 27.167 28.608C27.2073 28.6399 27.2163 28.6516 27.2219 28.6647C27.2266 28.6769 27.2275 28.6846 27.2256 28.738C27.2228 28.8364 27.214 28.9335 27.1999 29.0291C27.1709 29.2279 27.1164 29.4096 27.0077 29.5437C26.9627 29.599 26.9005 29.6507 26.8264 29.692C26.7627 29.7285 26.7152 29.7883 26.6946 29.8586C26.6421 30.0414 26.5742 30.2102 26.4749 30.364C26.2817 30.6612 25.9811 30.8841 25.6436 30.9957C25.4767 31.051 25.3016 31.079 25.1254 31.0799H25.1235C24.9473 31.079 24.7722 31.051 24.6053 30.9957C24.2678 30.8841 23.9653 30.6612 23.7722 30.364C23.6653 30.1999 23.5968 30.0161 23.5433 29.8183C23.5265 29.7546 23.4869 29.6993 23.4335 29.6608C23.3763 29.6215 23.3298 29.5821 23.298 29.5437C23.1892 29.4096 23.1357 29.2288 23.1057 29.0291C23.0916 28.9335 23.0847 28.8374 23.0819 28.738C23.081 28.6855 23.0818 28.6769 23.0874 28.6647C23.093 28.6516 23.1002 28.6408 23.1405 28.608C23.1611 28.5911 23.1935 28.572 23.2375 28.5439C23.3191 28.4914 23.3676 28.3979 23.3657 28.3004C23.3629 28.1916 23.3612 28.085 23.3584 27.9781C23.3359 27.6687 23.4908 27.3279 23.7008 27.1395C23.8414 27.012 24.0151 26.9208 24.2007 26.8758Z" fill="#3973B7"/>
<path d="M25.1547 23.2266C21.4815 23.2266 18.5043 26.2038 18.5043 29.877V29.8788C18.5043 33.5519 21.4815 36.5292 25.1547 36.5292C28.8278 36.5292 31.8051 33.5519 31.8051 29.8788C31.806 26.2057 28.8296 23.2275 25.1565 23.2266H25.1547ZM25.0283 24.0341H25.1364H25.1547C28.3825 24.0341 30.9994 26.6501 30.9994 29.877V29.8788C30.9994 31.2691 30.5023 32.6134 29.6005 33.6709L29.5803 33.5665C29.5306 33.3331 29.4712 33.1021 29.4009 32.8781C29.3934 32.849 29.3846 32.8192 29.3752 32.7902C29.1559 32.1227 28.5567 31.6481 27.8573 31.589C27.5479 31.5581 27.2287 31.5354 26.9015 31.5157C26.7918 31.7604 26.665 31.9984 26.5206 32.2244C26.3481 32.4944 26.1503 32.748 25.9347 32.9843C25.8381 33.0893 25.7238 33.177 25.6198 33.2754L25.4568 32.4221L25.6454 32.1987C25.7448 32.0825 25.7342 31.9072 25.6179 31.8069C25.5673 31.7638 25.5014 31.7391 25.4348 31.7391H24.8727C24.7199 31.7391 24.5971 31.8646 24.598 32.0175C24.598 32.084 24.6208 32.1472 24.6639 32.1969L24.8544 32.4203L24.6914 33.2736C24.5873 33.1761 24.473 33.0902 24.3765 32.9843C24.1608 32.7489 23.963 32.4944 23.7905 32.2244C23.6462 31.9984 23.5184 31.7604 23.4097 31.5157C23.0834 31.5354 22.7632 31.5581 22.4539 31.589C21.7535 31.6481 21.1571 32.1208 20.9377 32.7883C20.9284 32.8174 20.9196 32.849 20.9121 32.8781C20.8409 33.1031 20.7796 33.3313 20.7308 33.5647C20.7233 33.5994 20.7173 33.6344 20.7107 33.6691C19.8088 32.6116 19.3118 31.2673 19.3118 29.877C19.308 26.6998 21.8493 24.1034 25.0283 24.0341Z" fill="#3973B7"/>
<path d="M29.7028 40.8337C29.4769 40.8337 29.2941 41.0156 29.2941 41.2425C29.2941 41.4694 29.4759 41.6512 29.7028 41.6512H35.4703C35.6962 41.6512 35.8791 41.4694 35.8791 41.2425C35.8791 41.0156 35.6972 40.8337 35.4703 40.8337H29.7028Z" fill="#3973B7"/>
<path d="M19.5319 40.8337C19.3059 40.8337 19.1231 41.0156 19.1231 41.2425C19.1231 41.4694 19.305 41.6512 19.5319 41.6512H25.3012C25.5272 41.6512 25.7081 41.4694 25.7081 41.2425C25.7081 41.0156 25.5281 40.8337 25.3012 40.8337H19.5319Z" fill="#3973B7"/>
<path d="M29.7028 38.175C29.4769 38.175 29.2941 38.355 29.2941 38.5819C29.2941 38.8088 29.4759 38.9907 29.7028 38.9907H35.4703C35.6962 38.9907 35.8791 38.8088 35.8791 38.5819C35.8791 38.355 35.6972 38.175 35.4703 38.175H29.7028Z" fill="#3973B7"/>
<path d="M19.5319 38.175C19.3059 38.175 19.1231 38.355 19.1231 38.5819C19.1231 38.8088 19.305 38.9907 19.5319 38.9907H25.3012C25.5272 38.9907 25.7081 38.8088 25.7081 38.5819C25.7081 38.355 25.5281 38.175 25.3012 38.175H19.5319Z" fill="#3973B7"/>
<path d="M16.3238 20.385C15.7978 20.385 15.375 20.8078 15.375 21.3328V43.9153C15.375 44.4413 15.7978 44.8641 16.3238 44.8641H29.8191V48.5466C28.8084 48.6947 27.7987 48.8494 26.7872 48.9881C25.6031 49.1503 24.4237 49.3013 23.2678 49.5628C23.0212 49.6191 22.7972 49.6791 22.6284 49.8084C22.4334 49.9584 22.3106 50.2041 22.1869 50.4694C22.1587 50.5228 22.1353 50.6053 22.1353 50.6653C22.1353 50.8144 22.2262 50.9503 22.3641 51.0056C22.6144 51.1219 22.8694 51.2306 23.1328 51.315C23.6447 51.4781 24.1734 51.5691 24.7078 51.6084C24.7603 51.6159 24.8128 51.6141 24.8653 51.6141C24.9722 51.6141 25.0819 51.6047 25.1859 51.5775C25.7513 51.4453 26.3184 51.3141 26.8856 51.1969C28.0341 50.9597 29.1891 50.7647 30.3478 50.5875H34.8281C35.9869 50.7647 37.1428 50.9597 38.2903 51.1969C38.8566 51.3141 39.4228 51.4463 39.9881 51.5775C40.0912 51.6047 40.2028 51.6141 40.3106 51.6141C40.3641 51.6141 40.4156 51.6159 40.4681 51.6084C41.0016 51.5691 41.5312 51.4781 42.0431 51.315C42.3066 51.2306 42.5597 51.1219 42.81 51.0056C42.9478 50.9494 43.0406 50.8144 43.0406 50.6653C43.0406 50.6053 43.0172 50.5228 42.9891 50.4694C42.8662 50.2041 42.7434 49.9584 42.5475 49.8084C42.3787 49.6791 42.1528 49.6191 41.9062 49.5628C40.7512 49.3013 39.5709 49.1503 38.3869 48.9881C37.3762 48.8503 36.3666 48.6947 35.3569 48.5466V44.8641H42.0938C41.8884 44.4206 41.7056 43.9706 41.5312 43.515H16.7213V21.7341H48.4519V34.3631C48.6694 34.3556 48.8878 34.3416 49.1053 34.3416C49.3387 34.3416 49.5684 34.3575 49.8009 34.365V21.3338C49.8009 20.8078 49.3781 20.385 48.8522 20.385H16.3238Z" fill="#3973B7"/>
</svg>
