<svg width="16" height="20" viewBox="0 0 16 20" fill="none" xmlns="http://www.w3.org/2000/svg">
<g clip-path="url(#clip0_222_112)">
<path d="M15.0759 14.4125C14.2676 13.2824 13.1138 12.473 11.8047 12.1175L11.7639 12.1083L10.8207 13.7666C10.8201 13.9874 10.7356 14.199 10.5857 14.3552C10.4358 14.5113 10.2327 14.5993 10.0207 14.6C9.58073 14.6 9.22073 14.225 8.80073 13.1216V13.095C8.80073 12.8187 8.69538 12.5537 8.50784 12.3584C8.3203 12.163 8.06595 12.0533 7.80073 12.0533C7.53552 12.0533 7.28116 12.163 7.09363 12.3584C6.90609 12.5537 6.80073 12.8187 6.80073 13.095V13.1225V13.1208C6.35273 14.225 5.98953 14.5991 5.55033 14.5991C5.33835 14.5985 5.13524 14.5105 4.98535 14.3543C4.83545 14.1982 4.75097 13.9866 4.75033 13.7658L3.83673 12.1041C2.51852 12.4534 1.35413 13.2606 0.535932 14.3925L0.524732 14.4083C0.201255 14.9612 0.0207299 15.592 0.000732422 16.2391V16.245C0.00473242 16.37 0.000732422 16.5158 0.000732422 16.6616V18.3283C0.000732422 18.7703 0.169303 19.1942 0.469362 19.5068C0.76942 19.8194 1.17639 19.995 1.60073 19.995H14.0007C14.4251 19.995 14.832 19.8194 15.1321 19.5068C15.4322 19.1942 15.6007 18.7703 15.6007 18.3283V16.6616C15.6007 16.5166 15.5967 16.37 15.6007 16.245C15.5814 15.5901 15.3977 14.952 15.0679 14.3941L15.0767 14.4108L15.0759 14.4125ZM3.59993 4.40829C3.59993 6.84163 5.05593 10.4166 7.79993 10.4166C10.4959 10.4166 11.9999 6.84163 11.9999 4.40829V4.35413C11.9999 3.77959 11.8913 3.21069 11.6802 2.67989C11.4692 2.14909 11.1598 1.66679 10.7698 1.26053C10.3798 0.854278 9.91677 0.532017 9.4072 0.312153C8.89763 0.0922887 8.35148 -0.020874 7.79993 -0.020874C7.24838 -0.020874 6.70223 0.0922887 6.19266 0.312153C5.68309 0.532017 5.22009 0.854278 4.83008 1.26053C4.44008 1.66679 4.13071 2.14909 3.91964 2.67989C3.70857 3.21069 3.59993 3.77959 3.59993 4.35413V4.41079V4.40829Z" fill="#2E2E2E"/>
</g>
<defs>
<clipPath id="clip0_222_112">
<rect width="16" height="20" fill="white"/>
</clipPath>
</defs>
</svg>
