<svg width="20" height="20" viewBox="0 0 20 20" fill="none" xmlns="http://www.w3.org/2000/svg">
<path d="M16.5625 7.50005C16.5626 6.24212 16.2012 5.01065 15.5213 3.9523C14.8414 2.89395 13.8716 2.05332 12.7274 1.53051C11.5833 1.0077 10.313 0.824751 9.0678 1.00344C7.82262 1.18213 6.65504 1.71493 5.70408 2.53839C4.75313 3.36186 4.05889 4.44129 3.70403 5.64813C3.34917 6.85498 3.34865 8.13838 3.70252 9.34552C4.0564 10.5527 4.74976 11.6326 5.70004 12.4569C6.65032 13.2811 7.81747 13.8149 9.0625 13.9946V15.3126H6.875C6.62636 15.3126 6.3879 15.4113 6.21209 15.5871C6.03627 15.763 5.9375 16.0014 5.9375 16.2501C5.9375 16.4987 6.03627 16.7372 6.21209 16.913C6.3879 17.0888 6.62636 17.1876 6.875 17.1876H9.0625V18.7501C9.0625 18.9987 9.16127 19.2372 9.33709 19.413C9.5129 19.5888 9.75136 19.6876 10 19.6876C10.2486 19.6876 10.4871 19.5888 10.6629 19.413C10.8387 19.2372 10.9375 18.9987 10.9375 18.7501V17.1876H13.125C13.3736 17.1876 13.6121 17.0888 13.7879 16.913C13.9637 16.7372 14.0625 16.4987 14.0625 16.2501C14.0625 16.0014 13.9637 15.763 13.7879 15.5871C13.6121 15.4113 13.3736 15.3126 13.125 15.3126H10.9375V13.9946C12.4984 13.7673 13.9256 12.9862 14.9583 11.7938C15.991 10.6015 16.5604 9.07746 16.5625 7.50005ZM5.3125 7.50005C5.3125 6.57295 5.58742 5.66667 6.10249 4.89582C6.61756 4.12496 7.34964 3.52415 8.20617 3.16937C9.0627 2.81458 10.0052 2.72175 10.9145 2.90262C11.8238 3.08349 12.659 3.52993 13.3146 4.18549C13.9701 4.84105 14.4166 5.67628 14.5974 6.58557C14.7783 7.49485 14.6855 8.43735 14.3307 9.29388C13.9759 10.1504 13.3751 10.8825 12.6042 11.3976C11.8334 11.9126 10.9271 12.1876 10 12.1876C8.75724 12.1861 7.5658 11.6918 6.68704 10.813C5.80827 9.93426 5.31395 8.74281 5.3125 7.50005Z" fill="#767676"/>
</svg>
