<svg width="20" height="20" viewBox="0 0 20 20" fill="none" xmlns="http://www.w3.org/2000/svg">
<path d="M18.7632 5.72484C18.5384 5.40354 18.2373 5.21588 17.8676 5.16804C17.092 5.06678 16.1444 5.62565 15.5685 6.13481C15.4603 6.23049 15.3629 6.32927 15.2769 6.4163C15.0271 6.66933 14.8776 6.81307 14.6779 6.80523C14.43 6.79719 14.0768 6.54354 13.5968 6.02984C12.1989 4.53308 10.8222 4 10.0002 4C9.17798 4 7.80149 4.53308 6.4034 6.02984C5.9236 6.54374 5.57019 6.79739 5.32234 6.80523C5.12374 6.81265 4.97329 6.66933 4.72353 6.4163C4.63731 6.32927 4.5401 6.23049 4.43152 6.13481C3.85565 5.62544 2.9078 5.06699 2.13258 5.16804C1.76306 5.21588 1.46157 5.40354 1.23683 5.72484C0.617945 6.60973 1.34598 8.11041 1.89173 8.88621C1.92281 9.03077 1.98439 9.17616 2.07668 9.31742C2.26693 9.60923 2.56766 9.85112 2.92334 9.9996C3.15547 10.0967 3.40048 10.1479 3.63186 10.1479C3.99512 10.1479 4.30305 10.0215 4.49804 9.80617C5.10499 9.67192 6.47579 9.30793 7.62602 8.56842C7.77799 9.09058 7.97469 9.71357 8.2199 10.2823C8.44577 10.8063 8.36202 11.1617 8.24624 11.6535C8.15964 12.0226 8.06129 12.4406 8.06129 13.0245C8.06129 14.4132 8.89601 16.4277 8.93164 16.5129C8.93467 16.5209 8.93884 16.5284 8.94301 16.536C8.94301 16.5364 8.94339 16.5368 8.94377 16.5372C8.94907 16.5469 8.9557 16.5552 8.96253 16.5632C8.96442 16.5653 8.96632 16.5673 8.96821 16.5692C8.97446 16.576 8.98129 16.582 8.98811 16.5871C8.98924 16.5882 8.99 16.5894 8.99171 16.5902C8.99284 16.5917 8.99436 16.5923 8.99588 16.5937C8.99588 16.5937 8.99626 16.5937 8.99626 16.5942C9.40897 16.8975 9.76939 17 10.068 17C10.6841 17 11.0373 16.5638 11.0426 16.557C11.053 16.544 11.0617 16.5292 11.0682 16.5131C11.1038 16.4279 11.9389 14.4134 11.9389 13.0247C11.9389 12.4409 11.8402 12.0228 11.7536 11.6537C11.6382 11.1619 11.5541 10.8065 11.7801 10.2825C12.0253 9.71378 12.222 9.09079 12.3742 8.56863C13.5244 9.30814 14.8952 9.67212 15.5024 9.80637C15.6972 10.0217 16.0051 10.1481 16.3683 10.1481H16.3689C16.5997 10.1481 16.8447 10.0967 17.0767 9.99981C17.6332 9.76781 18.0171 9.33145 18.1102 8.88374C18.6557 8.10732 19.3813 6.6087 18.7632 5.72484ZM4.34815 9.38527C4.34568 9.39249 4.34246 9.3995 4.33962 9.40672C4.24658 9.63294 3.97844 9.77296 3.63204 9.77296C3.44255 9.77296 3.24017 9.72987 3.04689 9.64965C2.75393 9.52756 2.50929 9.33248 2.35807 9.10027C2.22164 8.89158 2.18033 8.68061 2.24153 8.50594C2.26655 8.43521 2.30899 8.37231 2.3649 8.3191C2.45718 8.23022 2.58774 8.16774 2.74388 8.13804C2.7454 8.13784 2.74654 8.13784 2.74805 8.13742C2.76037 8.13536 2.77269 8.1333 2.78519 8.13165C2.79277 8.13041 2.80092 8.12917 2.80888 8.12814C2.81874 8.12711 2.82878 8.12567 2.83863 8.12443C2.85057 8.1236 2.86232 8.12237 2.87426 8.12196C2.88165 8.12113 2.88923 8.12051 2.897 8.12031C2.91689 8.11948 2.93717 8.11845 2.95782 8.11845C3.14694 8.11845 3.34913 8.16114 3.54242 8.24198C3.57501 8.25579 3.60665 8.27023 3.63811 8.28528C3.64076 8.28693 3.64342 8.28817 3.64607 8.28941C3.67563 8.30405 3.70443 8.31952 3.73267 8.3356C3.73684 8.33808 3.74119 8.34014 3.74536 8.34261C3.77208 8.35808 3.79842 8.37478 3.82419 8.39128L3.83916 8.40139C3.86399 8.41809 3.88805 8.43562 3.91136 8.45294C3.91685 8.45727 3.92178 8.4614 3.92709 8.46511C3.95002 8.48305 3.972 8.5014 3.99341 8.52017C3.99872 8.52471 4.00383 8.52924 4.00914 8.53399C4.02979 8.55255 4.05007 8.57193 4.06959 8.59173C4.07452 8.59668 4.07925 8.60163 4.08418 8.60678C4.10332 8.62679 4.1217 8.64658 4.13932 8.66762C4.14349 8.67257 4.14766 8.67752 4.15183 8.68308C4.16907 8.70391 4.18594 8.72577 4.20129 8.74722C4.20242 8.74866 4.20394 8.75031 4.2047 8.75134C4.2047 8.75134 4.2047 8.75134 4.20432 8.75134C4.21379 8.76475 4.2227 8.77754 4.23161 8.79094C4.36842 8.99984 4.40935 9.2108 4.34815 9.38527ZM4.37865 8.39726C4.19371 8.18465 3.94718 8.00895 3.66616 7.89181C3.43402 7.79468 3.18901 7.74354 2.9582 7.74354C2.83712 7.74354 2.72266 7.75756 2.61579 7.78437C2.38536 7.67425 2.2061 7.47751 2.12007 7.23768C2.04882 7.0395 2.05109 6.83142 2.12689 6.66665C2.17673 6.55838 2.25745 6.49136 2.37475 6.46187C2.75222 6.36639 3.41015 6.65675 4.091 7.22015C5.12166 8.07329 5.37104 7.9875 6.26185 7.48556C6.63174 7.27727 6.92508 7.21066 7.11003 7.29233C7.21766 7.33976 7.29554 7.44143 7.34936 7.60063C6.84436 7.97348 5.93687 8.38138 4.37865 8.39726ZM12.6516 7.60063C12.705 7.44143 12.7833 7.33976 12.8909 7.29233C13.0759 7.21066 13.3687 7.27727 13.7393 7.48556C14.6299 7.9875 14.8797 8.07329 15.91 7.22015C16.5908 6.65675 17.2486 6.36619 17.6262 6.46187C17.7433 6.49136 17.8244 6.55838 17.8743 6.66665C17.9499 6.83142 17.9521 7.0395 17.8811 7.23768C17.7949 7.47772 17.6158 7.67445 17.3852 7.78437C17.2783 7.75756 17.1639 7.74354 17.0428 7.74354C16.8118 7.74354 16.5666 7.79489 16.3348 7.89181C16.0538 8.00895 15.8071 8.18465 15.6221 8.39726C14.0641 8.38138 13.1564 7.97348 12.6516 7.60063ZM16.9537 9.64965C16.7604 9.72987 16.5582 9.77296 16.3693 9.77296H16.3687C16.0115 9.77296 15.737 9.62407 15.6528 9.38527C15.591 9.2108 15.6324 8.99984 15.7686 8.79114C15.9204 8.55914 16.1652 8.36406 16.458 8.24198C16.6515 8.16114 16.8535 8.11845 17.0428 8.11845C17.4003 8.11845 17.6749 8.26734 17.7591 8.50594C17.8934 8.88766 17.5246 9.41105 16.9537 9.64965Z" fill="black"/>
</svg>
