<svg width="20" height="20" viewBox="0 0 20 20" fill="none" xmlns="http://www.w3.org/2000/svg">
<path fill-rule="evenodd" clip-rule="evenodd" d="M9.61841 6.35413C8.69015 6.35413 7.79991 6.73824 7.14353 7.42197C6.48716 8.10569 6.11841 9.03302 6.11841 9.99996C6.11841 10.9669 6.48716 11.8942 7.14353 12.578C7.79991 13.2617 8.69015 13.6458 9.61841 13.6458C10.5467 13.6458 11.4369 13.2617 12.0933 12.578C12.7497 11.8942 13.1184 10.9669 13.1184 9.99996C13.1184 9.03302 12.7497 8.10569 12.0933 7.42197C11.4369 6.73824 10.5467 6.35413 9.61841 6.35413Z" fill="#2E2E2E"/>
<path fill-rule="evenodd" clip-rule="evenodd" d="M9.61842 3.75C6.16882 3.75 3.19842 5.88 1.84082 8.94583C1.69445 9.27635 1.61865 9.63601 1.61865 10C1.61865 10.364 1.69445 10.7236 1.84082 11.0542C3.19842 14.12 6.16882 16.25 9.61842 16.25C13.068 16.25 16.0392 14.12 17.3968 11.0542C17.6928 10.3858 17.6928 9.61417 17.3968 8.94583C16.0392 5.88 13.0688 3.75 9.61842 3.75ZM2.93042 9.46917C4.10002 6.82833 6.65602 5 9.61842 5C12.5816 5 15.1376 6.82833 16.3064 9.46917C16.456 9.80583 16.456 10.1942 16.3064 10.5308C15.1384 13.1717 12.5824 15 9.61922 15C6.65602 15 4.10082 13.1717 2.93122 10.5308C2.85747 10.3644 2.81928 10.1833 2.81928 10C2.81928 9.8167 2.85667 9.63559 2.93042 9.46917Z" fill="#2E2E2E"/>
</svg>
