<svg width="14" height="14" viewBox="0 0 14 14" fill="none" xmlns="http://www.w3.org/2000/svg">
<path d="M2.69267 11.0833C2.42394 11.0833 2.19975 10.9935 2.02008 10.8138C1.84042 10.6341 1.75039 10.4097 1.75 10.1406V3.85929C1.75 3.59057 1.84003 3.36638 2.02008 3.18671C2.20014 3.00704 2.42414 2.91701 2.69208 2.91663H11.3079C11.5763 2.91663 11.8003 3.00665 11.9799 3.18671C12.1596 3.36676 12.2496 3.59096 12.25 3.85929V10.1412C12.25 10.4095 12.16 10.6337 11.9799 10.8138C11.7999 10.9938 11.5759 11.0837 11.3079 11.0833H2.69267ZM7 6.97663C7.04861 6.97663 7.09411 6.96924 7.1365 6.95446C7.1785 6.93968 7.22011 6.9216 7.26133 6.90021L11.4782 4.13929C11.5335 4.10585 11.5694 4.06015 11.5862 4.00221C11.6029 3.94427 11.5998 3.88652 11.5768 3.82896C11.5621 3.7539 11.5131 3.69946 11.4298 3.66563C11.347 3.63218 11.2667 3.63899 11.1889 3.68604L7 6.41663L2.81167 3.68663C2.73389 3.63918 2.65533 3.62907 2.576 3.65629C2.49667 3.68352 2.44572 3.73718 2.42317 3.81729C2.40061 3.87718 2.39769 3.93804 2.41442 3.99988C2.43114 4.06171 2.46692 4.10838 2.52175 4.13988L6.73867 6.90021C6.77989 6.9216 6.8215 6.93968 6.8635 6.95446C6.90589 6.96885 6.95139 6.97604 7 6.97604" fill="#767676"/>
</svg>
