<svg width="20" height="20" viewBox="0 0 20 20" fill="none" xmlns="http://www.w3.org/2000/svg">
<path d="M10 2.5C5.85792 2.5 2.5 5.85792 2.5 10C2.5 14.1421 5.85792 17.5 10 17.5C14.1421 17.5 17.5 14.1421 17.5 10" stroke="#767676" stroke-width="1.6" stroke-linecap="round" stroke-linejoin="round"/>
<path d="M10 6.25C9.25832 6.25 8.5333 6.46993 7.91661 6.88199C7.29993 7.29404 6.81928 7.87971 6.53545 8.56494C6.25162 9.25016 6.17736 10.0042 6.32206 10.7316C6.46675 11.459 6.8239 12.1272 7.34835 12.6517C7.8728 13.1761 8.54098 13.5333 9.26841 13.6779C9.99584 13.8226 10.7498 13.7484 11.4351 13.4645C12.1203 13.1807 12.706 12.7001 13.118 12.0834C13.5301 11.4667 13.75 10.7417 13.75 10M10 10L12.625 7.3725" stroke="#767676" stroke-width="1.6" stroke-linecap="round" stroke-linejoin="round"/>
<path d="M12.625 4.76083V7.375H15.2604L17.5 5.125H14.8762V2.5L12.625 4.76083Z" stroke="#767676" stroke-width="1.6" stroke-linejoin="round"/>
</svg>
