<svg width="20" height="21" viewBox="0 0 20 21" fill="none" xmlns="http://www.w3.org/2000/svg">
<path d="M12.9545 16.6363V15.1211C12.9545 14.3174 12.6352 13.5467 12.0669 12.9784C11.4986 12.4101 10.7278 12.0908 9.92416 12.0908H3.86355C3.05987 12.0908 2.2891 12.4101 1.72081 12.9784C1.15252 13.5467 0.833252 14.3174 0.833252 15.1211V16.6363" stroke="#1B3A5A" stroke-width="1.2" stroke-linecap="round" stroke-linejoin="round"/>
<path d="M6.89383 9.06061C8.56742 9.06061 9.92413 7.70389 9.92413 6.0303C9.92413 4.35671 8.56742 3 6.89383 3C5.22024 3 3.86353 4.35671 3.86353 6.0303C3.86353 7.70389 5.22024 9.06061 6.89383 9.06061Z" stroke="#1B3A5A" stroke-width="1.2" stroke-linecap="round" stroke-linejoin="round"/>
<path d="M17.5 16.6364V15.1213C17.4995 14.4499 17.276 13.7976 16.8647 13.267C16.4533 12.7363 15.8774 12.3573 15.2273 12.1895" stroke="#1B3A5A" stroke-width="1.2" stroke-linecap="round" stroke-linejoin="round"/>
<path d="M12.1968 3.09863C12.8486 3.26553 13.4264 3.64462 13.8389 4.17614C14.2515 4.70766 14.4754 5.36138 14.4754 6.03424C14.4754 6.7071 14.2515 7.36081 13.8389 7.89234C13.4264 8.42386 12.8486 8.80295 12.1968 8.96984" stroke="#1B3A5A" stroke-width="1.2" stroke-linecap="round" stroke-linejoin="round"/>
</svg>
