<svg width="70" height="70" viewBox="0 0 70 70" fill="none" xmlns="http://www.w3.org/2000/svg">
<path d="M61.7006 33.126C61.145 33.2121 60.6667 33.619 60.5208 34.1994L57.6406 45.6444C57.4452 46.4187 57.9119 47.1975 58.6862 47.3929L62.4065 48.3306C63.1808 48.526 63.9625 48.0594 64.1579 47.285L67.0381 35.84C67.2335 35.0656 66.7669 34.284 65.9925 34.0885L62.2723 33.1508C62.0783 33.1027 61.8858 33.0969 61.7006 33.126Z" fill="#FF9955"/>
<path d="M45.5131 17.1777C45.3294 17.1777 45.1471 17.2171 44.9838 17.3002C44.7329 17.414 44.4996 17.5627 44.2969 17.7508C43.9746 18.0512 43.7383 18.4275 43.5794 18.8271C43.4204 19.2267 43.3344 19.6481 43.2921 20.0667C43.1127 21.789 43.626 23.5127 44.4456 25.0148C44.9065 25.8606 45.4533 26.6408 45.8442 27.4808C45.064 27.5275 44.2808 27.5756 43.5006 27.6208C42.8487 27.6587 42.1823 27.6981 41.5217 27.7769C40.0327 27.9227 38.6137 28.4652 37.4092 29.349V29.3548C36.8448 29.7602 36.4715 30.4194 36.4715 31.1602C36.4715 31.9302 36.8973 32.5835 37.4996 32.9831C36.8973 33.3827 36.4715 34.0331 36.4715 34.8031C36.4715 35.6621 36.9848 36.3956 37.7052 36.766C37.2152 37.1758 36.8842 37.7665 36.8842 38.446C36.8842 39.5602 37.7358 40.4571 38.8092 40.6102C38.4504 41.0054 38.2142 41.5187 38.2142 42.089C38.2142 42.8006 38.5583 43.4379 39.0862 43.8462C39.5908 44.2648 40.1435 44.6221 40.7298 44.9108C41.0827 45.0873 41.4473 45.236 41.8235 45.3556C41.844 45.3615 41.8629 45.3702 41.8833 45.376C41.9154 45.3877 41.949 45.3979 41.9825 45.4067C42.0335 45.4227 42.0846 45.4373 42.1356 45.4519C42.4185 45.5321 42.7088 45.5962 42.999 45.6458C43.0106 45.6458 43.0252 45.6502 43.0354 45.6517C43.1973 45.6794 43.3606 45.7027 43.5254 45.7202C43.8244 45.7567 44.1248 45.7887 44.4252 45.8092C47.1392 45.9812 49.8342 45.554 52.5117 45.411C53.7658 45.3425 55.0273 45.3396 56.2508 45.5335C56.2567 45.5058 56.2596 45.481 56.2654 45.4533L59.2185 33.7327C59.2667 33.5387 59.3381 33.355 59.4271 33.1829C58.625 32.744 57.8696 32.2262 57.1769 31.6283C55.7244 30.3742 54.5606 28.7977 53.2 27.3875C52.3133 26.4673 51.3523 25.6331 50.4627 24.7421C49.0817 23.3581 47.8362 21.7977 47.164 19.9879C46.9452 19.3944 46.7877 18.779 46.674 18.1504C46.5733 17.589 46.0833 17.1777 45.5131 17.1777Z" fill="#FF9955"/>
<path d="M30.6162 43.4088C30.3712 43.4088 30.1715 43.6085 30.1715 43.8535V45.0392C30.1715 45.2842 30.3712 45.481 30.6162 45.481H39.0017C38.7421 45.3046 38.4854 45.1223 38.2433 44.9225C37.746 44.536 37.3683 44.0081 37.1233 43.4102L30.6162 43.4088Z" fill="#3973B7"/>
<path d="M28.3719 41.6544C28.3237 41.7171 28.2712 41.774 28.2231 41.8367C27.4079 42.8998 26.7765 43.9615 26.0152 45.2827C25.6171 46.0352 24.4854 46.1052 23.9983 45.3994C23.6935 44.9546 23.3406 44.5433 22.9469 44.1977C22.4729 43.7821 21.9348 43.4496 21.3602 43.19V45.0931C21.3602 45.6677 21.8196 46.13 22.3942 46.13H27.3335C27.9081 46.13 28.3704 45.6677 28.3704 45.0931L28.3719 41.6544Z" fill="#3973B7"/>
<path d="M30.5769 40.3259C30.3537 40.3259 30.1729 40.5082 30.1729 40.7298V41.9942C30.1729 42.2159 30.3552 42.3982 30.5769 42.3982H36.8798C36.871 42.2961 36.8433 42.1984 36.8433 42.0934C36.8433 41.7419 37.1029 41.5202 37.1992 41.2052C36.8317 40.9573 36.5152 40.6554 36.2425 40.3244H30.5769V40.3259Z" fill="#3973B7"/>
<path d="M22.3956 39.5719C21.821 39.5719 21.3617 40.0342 21.3617 40.6088V40.8596C21.9698 40.5942 22.5794 40.3273 23.1992 40.0736C23.2254 40.0619 23.2662 40.0502 23.31 40.0342C23.7752 39.8446 24.2783 39.9773 24.6152 40.3536C24.7275 40.1159 24.8062 39.8723 24.9375 39.639C24.9506 39.6156 24.9681 39.5967 24.9798 39.5734L22.3956 39.5719Z" fill="#3973B7"/>
<path d="M27.8162 37.364C27.7287 37.364 27.6456 37.399 27.5858 37.4631C26.8538 38.2463 26.2135 39.1213 25.6885 40.0575C25.3429 40.6773 25.0629 41.3277 24.8194 41.9942L24.0042 40.9296C23.9167 40.8159 23.7635 40.7736 23.6308 40.8275C23.5973 40.8421 23.5652 40.8567 23.5317 40.8698C22.8535 41.1454 22.1769 41.4313 21.506 41.7244C21.2494 41.8352 21.2508 42.1998 21.509 42.3077C22.2381 42.6125 22.9177 43.0369 23.5112 43.5575C23.9648 43.9542 24.3673 44.4077 24.71 44.905C24.8456 45.1019 25.1388 45.0844 25.251 44.8744C26.0225 43.5356 26.6773 42.4361 27.5348 41.3175C28.3835 40.2092 29.3242 39.1723 30.3435 38.2186C30.539 38.0348 30.434 37.7052 30.1671 37.6717L27.8571 37.3669C27.8454 37.364 27.8308 37.364 27.8162 37.364Z" fill="#3973B7"/>
<path d="M30.5317 31.3629C30.3319 31.3629 30.1729 31.5248 30.1729 31.7246V33.075C30.1729 33.2748 30.3319 33.4367 30.5317 33.4367H35.4419C35.5148 33.2836 35.5717 33.1202 35.6606 32.9788C35.3602 32.5034 35.156 31.9638 35.1137 31.3644L30.5317 31.3629Z" fill="#3973B7"/>
<path d="M30.5769 27.9358C30.3537 27.9358 30.1729 28.1181 30.1729 28.3398V29.6071C30.1729 29.8302 30.3552 30.0081 30.5769 30.0081H35.3398C35.5367 29.5225 35.8298 29.0894 36.1944 28.7175C36.2921 28.5294 36.4335 28.3661 36.6042 28.2421C36.6071 28.2406 36.6129 28.2436 36.6158 28.2421C36.7704 28.1283 36.9396 28.0379 37.1 27.9344L30.5769 27.9358Z" fill="#3973B7"/>
<path d="M22.3927 27.179C21.8181 27.179 21.3558 27.6413 21.3558 28.2159V32.7017C21.3558 33.2763 21.8181 33.7386 22.3927 33.7386H27.3321C27.9067 33.7386 28.369 33.2763 28.369 32.7017V28.2159C28.369 27.6413 27.9067 27.179 27.3321 27.179H22.3927Z" fill="#3973B7"/>
<path d="M30.6162 19.9981C30.3712 19.9981 30.1715 20.1921 30.1715 20.4371V21.6242C30.1715 21.8692 30.3712 22.069 30.6162 22.069H33.4498H40.9719H42.0146C41.9125 21.3923 41.8629 20.7054 41.9285 19.9981H40.9719H33.4498H30.6162Z" fill="#3973B7"/>
<path d="M28.3719 18.2438C28.3237 18.305 28.2712 18.3619 28.2231 18.4231C27.4079 19.4863 26.7765 20.5494 26.0152 21.8692C25.6171 22.6217 24.4854 22.6946 23.9983 21.9888C23.6935 21.5454 23.3406 21.1298 22.9469 20.7842C22.4729 20.3686 21.9348 20.0361 21.3602 19.7765V21.6825C21.3602 22.2571 21.8196 22.7165 22.3942 22.7165H27.3335C27.9081 22.7165 28.3704 22.2571 28.3704 21.6825L28.3719 18.2438Z" fill="#3973B7"/>
<path d="M30.5769 16.9138C30.3537 16.9138 30.1729 17.096 30.1729 17.3177V18.585C30.1729 18.8081 30.3552 18.986 30.5769 18.986H39.9963C40.2179 18.986 40.3973 18.8067 40.3973 18.585V17.3177C40.3973 17.0946 40.2179 16.9138 39.9963 16.9138H30.5769Z" fill="#3973B7"/>
<path d="M22.3956 16.1584C21.821 16.1584 21.3617 16.6206 21.3617 17.1952V17.4461C21.9698 17.1806 22.5794 16.9152 23.1992 16.6629C23.2254 16.6527 23.2662 16.6411 23.31 16.6236C23.7752 16.434 24.2783 16.5667 24.6152 16.9429C24.7275 16.7052 24.8062 16.4588 24.9375 16.2254C24.9506 16.2021 24.9681 16.1831 24.9798 16.1598H22.3956V16.1584Z" fill="#3973B7"/>
<path d="M27.8162 13.9504C27.7287 13.9504 27.6456 13.9884 27.5858 14.0525C26.8538 14.8371 26.2135 15.7077 25.6885 16.644C25.3429 17.2638 25.0629 17.9142 24.8194 18.5806L24.0042 17.5161C23.9167 17.4023 23.7635 17.36 23.6308 17.414C23.5973 17.4271 23.5652 17.4431 23.5317 17.4563C22.8535 17.7334 22.1769 18.0206 21.506 18.3138C21.2494 18.4261 21.2508 18.7892 21.509 18.8971C22.2381 19.2019 22.9177 19.6248 23.5112 20.144C23.9648 20.5406 24.3673 20.9971 24.71 21.4944C24.8456 21.6913 25.1388 21.6738 25.251 21.4638C26.0225 20.125 26.6773 19.024 27.5348 17.904C28.3835 16.7956 29.3242 15.7588 30.3435 14.805C30.539 14.6213 30.434 14.2931 30.1671 14.2581L27.8571 13.9534C27.8454 13.9519 27.8308 13.9504 27.8162 13.9504Z" fill="#3973B7"/>
<path d="M10.1996 9.12918C6.16 9.12918 2.91667 12.3725 2.91667 16.4121V18.3779C2.9225 18.3954 2.92687 18.4129 2.92833 18.4319C2.95604 19.0648 3.45771 19.5621 4.09646 19.5621H15.4671C15.5852 19.5621 15.6815 19.6583 15.68 19.7765C15.68 19.7765 15.68 19.7765 15.68 19.7779V32.3896V33.2836V43.8958V53.5865C15.68 57.6027 18.8898 60.8256 22.8944 60.8636C22.9017 60.8636 22.909 60.865 22.9177 60.8665C22.9192 60.8665 22.9221 60.8665 22.9221 60.8665C22.9571 60.8665 22.9702 60.8694 22.9658 60.8694H23.2998H26.8975H31.7931H48.4867C52.5262 60.8694 55.7725 57.6246 55.7725 53.5865V50.6158C55.7652 50.5925 55.7608 50.5706 55.7608 50.5473C55.7433 49.9042 55.2315 49.3967 54.584 49.3967H51.4106C51.2925 49.3967 51.1977 49.3004 51.1977 49.1823V46.8942C50.4204 46.9583 49.649 47.0196 48.8425 47.0852V49.1823C48.844 49.3004 48.7492 49.3967 48.6296 49.3981H29.3154C28.6694 49.3981 28.1575 49.9056 28.1415 50.5488C28.14 50.5648 28.1371 50.5794 28.1327 50.594V53.585C28.1327 56.3529 25.9744 58.5098 23.205 58.5098H22.9658C20.1979 58.5098 18.0381 56.3558 18.0381 53.5879V43.8973V33.285V33.2136V16.4121C18.0381 14.6723 17.4315 13.0842 16.4237 11.8344C16.3523 11.7411 16.3698 11.6054 16.4631 11.534C16.4996 11.5048 16.5448 11.4902 16.5915 11.4902H26.896H31.7917H36.7908H43.9119H43.9148C46.6827 11.4902 48.8425 13.6442 48.8425 16.4121V20.3481C49.4127 21.4696 50.2352 22.5283 51.1977 23.5244V16.4121C51.1977 12.3725 47.95 9.12918 43.9119 9.12918H36.7908H31.7917H26.896H10.1996Z" fill="#3973B7"/>
</svg>
