<svg width="70" height="70" viewBox="0 0 70 70" fill="none" xmlns="http://www.w3.org/2000/svg">
<path d="M13.538 34.0145C12.2649 34.0145 11.2422 35.0428 11.2422 36.3159V41.91C11.2422 43.1831 12.2649 44.2114 13.538 44.2114H35.6779H54.8498H56.4563C57.7294 44.2114 58.7577 43.1831 58.7577 41.91V36.3159C58.7577 35.0428 57.7294 34.0145 56.4563 34.0145H54.8498H35.6779H13.538ZM18.8387 35.9684C18.9554 35.9568 19.0728 35.9853 19.1691 36.0539C19.2974 36.1458 19.377 36.3052 19.377 36.4612V37.8341L20.4252 37.216C20.6002 37.1139 20.8388 37.1346 20.9949 37.2644L21.3708 37.5834C21.4919 37.6826 21.5577 37.8461 21.5446 38.0021C21.5329 38.1582 21.4409 38.3064 21.3053 38.3866L20.0834 39.1101L21.3053 39.8421C21.4409 39.9223 21.5314 40.0692 21.5446 40.2267C21.5562 40.3827 21.4919 40.5462 21.3708 40.6454L20.9949 40.9644C20.8403 41.0942 20.6002 41.1106 20.4252 41.0071L19.377 40.3947V41.5995V41.6052C19.377 41.8079 19.2462 42.001 19.0552 42.0667L18.5795 42.2347C18.4307 42.2872 18.2578 42.2582 18.1295 42.1664C18.0011 42.0745 17.9215 41.9236 17.9215 41.7676V40.3947L16.8847 41.0071C16.7097 41.1092 16.4711 41.0942 16.3151 40.9644L15.9306 40.6454C15.8095 40.5462 15.7437 40.3827 15.7568 40.2267C15.7685 40.0706 15.8604 39.9223 15.9961 39.8421L17.2265 39.1101L15.9961 38.3866C15.8604 38.3064 15.7699 38.1596 15.7568 38.0021C15.7451 37.8461 15.8095 37.6826 15.9306 37.5834L16.3151 37.2644C16.4697 37.1346 16.7097 37.1125 16.8847 37.216L17.9215 37.8341V36.6235C17.9215 36.4208 18.0609 36.2277 18.2519 36.1621L18.7248 35.9941C18.7612 35.9795 18.7993 35.9714 18.8387 35.9684ZM27.0076 35.9684H27.0105C27.1271 35.9568 27.2518 35.9853 27.3466 36.0539C27.4749 36.1458 27.5545 36.3052 27.5545 36.4612V37.8341L28.5913 37.216C28.7663 37.1139 29.0049 37.1346 29.1609 37.2644L29.5483 37.5834C29.6694 37.6826 29.7352 37.8461 29.7221 38.0021C29.7104 38.1582 29.6156 38.3064 29.48 38.3866L28.2495 39.1101L29.48 39.8421C29.6156 39.9223 29.7089 40.0692 29.7221 40.2267C29.7337 40.3827 29.6694 40.5462 29.5483 40.6454L29.1609 40.9644C29.0064 41.0942 28.7663 41.1106 28.5913 41.0071L27.5545 40.3947V41.5995V41.6052C27.5545 41.8079 27.418 42.001 27.2269 42.0667L26.7513 42.2347C26.6025 42.2872 26.4353 42.2582 26.3069 42.1664C26.1786 42.0745 26.0962 41.9236 26.0962 41.7676V40.3947L25.0565 41.0071C24.883 41.1092 24.6401 41.0942 24.484 40.9644L24.1052 40.6454C23.9842 40.5462 23.9183 40.3827 23.9315 40.2267C23.9431 40.0706 24.0351 39.9223 24.1707 39.8421L25.3926 39.1101L24.1707 38.3866C24.0351 38.3064 23.9446 38.1596 23.9315 38.0021C23.9198 37.8461 23.9842 37.6826 24.1052 37.5834L24.484 37.2644C24.6386 37.1346 24.8815 37.1125 25.0565 37.216L26.0962 37.8341V36.6235C26.0962 36.4208 26.2298 36.2277 26.4209 36.1621H26.4294L26.8965 35.9941C26.933 35.9809 26.9683 35.9714 27.0076 35.9684ZM35.1823 35.9684C35.2989 35.9568 35.4193 35.9853 35.5155 36.0539C35.6439 36.1458 35.7263 36.3052 35.7263 36.4612V37.8341L36.7659 37.216C36.9395 37.1139 37.1795 37.1346 37.3356 37.2644L37.7201 37.5834C37.8397 37.6826 37.9041 37.8461 37.891 38.0021C37.8793 38.1582 37.7902 38.3064 37.6546 38.3866L36.4298 39.1101L37.6546 39.8421C37.7902 39.9223 37.8779 40.0692 37.891 40.2267C37.9027 40.3827 37.8412 40.5462 37.7201 40.6454L37.3327 40.9644C37.1782 41.0942 36.9381 41.1106 36.7631 41.0071L35.7263 40.3947V41.5995V41.6052C35.7263 41.8079 35.5869 42.001 35.3959 42.0667L34.9288 42.2347C34.78 42.2872 34.6071 42.2582 34.4787 42.1664C34.3504 42.0745 34.2708 41.9236 34.2708 41.7676V40.3947L33.2312 41.0071H33.2255C33.0505 41.1092 32.8176 41.097 32.6615 40.9672L32.2798 40.6454C32.1588 40.5462 32.0901 40.3855 32.1033 40.2295C32.1149 40.0735 32.2097 39.9166 32.3454 39.8364L33.573 39.113L32.3454 38.3866C32.2097 38.3064 32.1164 38.1596 32.1033 38.0021C32.0916 37.8461 32.1588 37.6826 32.2798 37.5834L32.6615 37.2644C32.8161 37.1346 33.0505 37.1153 33.2255 37.2188H33.2312L34.2708 37.8341V36.6235C34.2708 36.4208 34.4073 36.2306 34.5984 36.165L35.0712 35.9969C35.1076 35.9809 35.1429 35.9714 35.1823 35.9684ZM40.9302 40.3548H42.303H43.8952H44.4079H45.6128H45.6185C45.8212 40.3548 46.0143 40.4913 46.0799 40.6824L46.2451 41.1524C46.2976 41.3011 46.2715 41.4712 46.1796 41.5995C46.0877 41.7279 45.9369 41.8103 45.7808 41.8103H44.4079H43.8952H42.303H41.0982H41.0925C40.8898 41.8103 40.6967 41.671 40.6311 41.4799L40.4659 41.0128C40.4134 40.864 40.4424 40.6911 40.5342 40.5628C40.6261 40.4344 40.7741 40.3548 40.9302 40.3548ZM49.2444 40.3548H50.6172H51.1299H52.2123H52.7221H53.927H53.9327C54.1354 40.3548 54.3285 40.4913 54.3941 40.6824L54.5593 41.1524C54.6118 41.3011 54.5857 41.4712 54.4938 41.5995C54.4019 41.7279 54.2511 41.8132 54.095 41.8132H52.7221H52.2094H51.1299H50.6172H49.4124H49.4067C49.204 41.8132 49.0109 41.671 48.9453 41.4799L48.7801 41.0128C48.7276 40.864 48.7537 40.6911 48.8456 40.5628C48.9375 40.4344 49.0869 40.3548 49.2444 40.3548Z" fill="#3973B7"/>
<path d="M16.6964 50.5692L16.7227 50.5884V50.5829C16.7095 50.5774 16.7052 50.5733 16.6964 50.5692Z" fill="#3973B7"/>
<path d="M15.3664 45.4869C15.2993 45.6954 15.2614 45.9113 15.2556 46.1358C15.2527 46.1533 15.2497 46.1723 15.2468 46.1898C15.2352 46.41 15.2264 46.62 15.2206 46.8388C15.2206 46.8446 15.2206 46.8504 15.2206 46.8563V46.8621C15.2206 46.8679 15.2206 46.8708 15.2206 46.8767C15.2191 47.0138 15.2191 47.145 15.2206 47.2806C15.2206 47.2865 15.2206 47.2923 15.2206 47.2981V47.304V47.3098V47.3156V47.3244C15.2206 47.3302 15.2206 47.3331 15.2206 47.339C15.2191 47.476 15.2191 47.6073 15.2206 47.7429C15.2206 47.7488 15.2206 47.7546 15.2206 47.7604V47.7663C15.2206 47.7721 15.2206 47.775 15.2206 47.7808C15.2264 47.9996 15.2322 48.2096 15.2468 48.4298C15.2497 48.4502 15.2527 48.4663 15.2556 48.4867C15.2789 49.3748 15.8141 50.1754 16.6206 50.5342L16.6687 50.5546C16.6745 50.5575 16.6833 50.5633 16.6891 50.5663H16.692L16.695 50.5692H16.6979C16.7022 50.5706 16.7066 50.5721 16.7212 50.5779C16.73 50.5808 16.7402 50.5852 16.7504 50.5896C17.8266 51.0825 19.072 51.3785 20.4385 51.6571C21.0087 51.7738 21.4841 52.1675 21.7058 52.7056C21.7145 52.726 21.7437 52.7858 21.7889 52.8879C22.0193 53.4304 21.961 54.0531 21.6358 54.5431C20.8643 55.7113 20.1818 56.7977 19.7706 57.9046C19.7604 57.9483 19.7472 57.9935 19.7341 58.0358C19.4191 58.8598 19.6014 59.8019 20.2095 60.4421C20.2212 60.4538 20.2329 60.4669 20.2431 60.4785C20.3904 60.6419 20.5318 60.8038 20.685 60.9627L20.6937 60.9744L20.6995 60.9802L20.7054 60.9831C20.7083 60.986 20.7127 60.9919 20.717 60.9948C20.8147 61.094 20.9022 61.1858 21.0014 61.2821C21.0043 61.2879 21.0087 61.2908 21.0131 61.2967L21.0247 61.3025L21.0306 61.3083C21.0335 61.3113 21.0364 61.3142 21.0393 61.3171C21.137 61.4163 21.2318 61.5125 21.3325 61.6102C21.3368 61.6131 21.3412 61.619 21.347 61.6219L21.3529 61.6277C21.3572 61.6306 21.3616 61.6365 21.3675 61.6394C21.5191 61.7852 21.6679 61.9077 21.8516 62.0696C21.8647 62.0827 21.8793 62.0958 21.891 62.109C22.5327 62.7156 23.4704 62.8979 24.2914 62.5844C24.3293 62.5698 24.3672 62.5581 24.4052 62.5479C25.5179 62.1352 26.616 61.4498 27.7827 60.6769C28.2712 60.3546 28.8895 60.2977 29.4291 60.5252C29.521 60.5631 29.575 60.5923 29.5997 60.6025C30.1408 60.8227 30.536 61.2981 30.6541 61.8698C30.9341 63.2392 31.2316 64.486 31.7245 65.5638C31.7274 65.5725 31.7318 65.5783 31.7362 65.5871C31.7537 65.6206 31.7537 65.6294 31.7595 65.641C31.7595 65.6425 31.7654 65.6454 31.7654 65.6469C31.7741 65.6644 31.7654 65.6644 31.7683 65.6644C31.7727 65.6702 31.777 65.679 31.7829 65.6848C32.1431 66.4913 32.9422 67.0265 33.8304 67.0498C33.8479 67.0513 33.8639 67.0527 33.8814 67.0556C34.1016 67.0688 34.3116 67.079 34.5304 67.0848C34.5362 67.0848 34.5435 67.0848 34.5508 67.0848H34.5566C34.561 67.0848 34.5654 67.0848 34.5712 67.0848C34.717 67.0863 34.8541 67.0863 34.9985 67.0848C35.0102 67.0848 35.0218 67.0848 35.032 67.0848C35.1764 67.0863 35.312 67.0863 35.4535 67.0848C35.4622 67.0848 35.4724 67.0848 35.4827 67.0848H35.4885C35.7058 67.0804 35.9041 67.0688 36.1243 67.0556C36.1447 67.0527 36.1608 67.0513 36.1812 67.0498C37.0693 67.0265 37.8699 66.4913 38.2287 65.6848C38.2447 65.6556 38.2593 65.6279 38.2768 65.5987C38.2783 65.5958 38.2754 65.5958 38.2768 65.5929C38.2797 65.59 38.2797 65.59 38.2827 65.5871C38.2856 65.5842 38.2885 65.5783 38.2914 65.5754C38.7872 64.4963 39.0745 63.245 39.3545 61.8727C39.4712 61.301 39.8664 60.8271 40.406 60.6054C40.4541 60.585 40.5227 60.5529 40.5999 60.5194C41.141 60.2933 41.7593 60.3517 42.2464 60.6754C43.4145 61.4469 44.4995 62.1235 45.6049 62.5348C45.6487 62.5465 45.6939 62.561 45.7362 62.5742C46.566 62.8921 47.5037 62.7127 48.1483 62.0988C48.1599 62.0871 48.1731 62.0754 48.1847 62.0652C48.3524 61.9135 48.5158 61.7633 48.6718 61.6117L48.6952 61.5883L48.9854 61.301L49.3441 60.9452L49.3237 60.9569C49.4724 60.8038 49.5993 60.6521 49.7685 60.464C49.7816 60.4494 49.7947 60.4362 49.8079 60.4246C50.4174 59.7829 50.5983 58.8379 50.2833 58.0183C50.2716 57.9863 50.2599 57.9527 50.2527 57.9192C50.2497 57.9163 50.2497 57.9104 50.2468 57.9075C49.8327 56.7904 49.1531 55.6938 48.3816 54.5271C48.0593 54.04 48.001 53.4217 48.2285 52.8835C48.2518 52.8325 48.2722 52.7727 48.297 52.7129C48.5187 52.1719 48.9956 51.7752 49.5702 51.6585C50.9395 51.3785 52.1879 51.081 53.2641 50.5881C53.2699 50.5852 53.2787 50.5823 53.2845 50.5794C53.3181 50.5619 53.3297 50.559 53.3414 50.5531L53.3472 50.5473C53.3647 50.5385 53.3618 50.5444 53.3647 50.5444C53.3735 50.5415 53.3793 50.5356 53.3881 50.5327C54.1945 50.174 54.7297 49.3763 54.7531 48.4881C54.7545 48.4677 54.756 48.4517 54.7589 48.4313C54.7735 48.2038 54.7822 47.9923 54.7881 47.7677C54.7881 47.7648 54.7881 47.7648 54.7881 47.7619C54.7895 47.6131 54.7895 47.4717 54.7881 47.3229C54.7881 47.32 54.7881 47.3142 54.7881 47.3113C54.7881 47.3083 54.7881 47.3025 54.7881 47.2996C54.7895 47.1508 54.7895 47.0123 54.7881 46.8635C54.7881 46.8606 54.7881 46.8606 54.7881 46.8577C54.7852 46.6331 54.7735 46.4188 54.7589 46.1913C54.756 46.1738 54.7545 46.1548 54.7531 46.1373C54.7472 45.9127 54.7079 45.6954 54.6393 45.4883H41.9081C42.0656 46.0833 42.1472 46.6958 42.1472 47.3113C42.1472 51.2531 38.955 54.4483 35.0131 54.4498C35.0131 54.4498 35.0116 54.4498 35.0102 54.4498C31.0683 54.4498 27.8745 51.2546 27.8745 47.3113C27.8745 46.6958 27.9562 46.0833 28.1137 45.4883L15.3664 45.4869Z" fill="#3973B7"/>
<path d="M34.9943 2.91666C33.4033 2.91666 31.818 3.03588 30.2576 3.23567C30.2415 3.23421 30.2252 3.23421 30.2092 3.23567C29.7031 3.28379 29.2141 3.42561 28.7708 3.64582C28.0343 4.01186 27.4132 4.59841 27.002 5.33487L26.9991 5.33772C26.9977 5.34063 26.9963 5.34474 26.9934 5.34911C26.2278 6.60765 25.2928 7.80506 24.2078 8.92943C23.8505 9.29839 23.4778 9.66172 23.0884 10.0146C23.0374 10.054 23.0006 10.0868 22.9802 10.1058C22.9116 10.1627 22.8367 10.2222 22.7608 10.2966C22.6996 10.3564 22.6522 10.4166 22.6099 10.4618V10.4647C22.5676 10.5113 22.5171 10.5573 22.4675 10.6156C22.4106 10.6827 22.3632 10.7481 22.3165 10.8093C22.28 10.8589 22.2405 10.9119 22.2026 10.9688C22.1574 11.0359 22.1195 11.1011 22.0801 11.1682C22.048 11.2236 22.0139 11.2808 21.9833 11.3391C21.9453 11.412 21.9129 11.4854 21.8779 11.5613C21.8516 11.6196 21.8256 11.6741 21.8067 11.7208C21.776 11.7951 21.7461 11.8753 21.7155 11.9657C21.6951 12.027 21.6802 12.08 21.6671 12.1252C21.6438 12.2054 21.6192 12.2911 21.5987 12.3844C21.5885 12.4282 21.586 12.4624 21.5816 12.4784C21.5321 12.7351 21.5019 12.9975 21.5019 13.2703C21.5019 13.6669 21.5733 14.0659 21.687 14.4495C21.6856 14.4815 21.6882 14.5128 21.6984 14.5434C21.853 15.0787 22.0233 15.605 22.1997 16.1271C22.2974 16.4173 22.4024 16.7044 22.5045 16.9873H22.5073C22.5832 17.1958 22.6578 17.4025 22.7381 17.6139C22.8489 17.9012 22.9632 18.1856 23.0799 18.4656C23.1105 18.5399 23.1432 18.6175 23.1767 18.6963C23.2277 18.8173 23.2766 18.9329 23.3277 19.0466C23.491 19.4258 23.661 19.811 23.8404 20.1916C23.8506 20.2121 23.8558 20.2269 23.8631 20.2401C24.0629 20.6615 24.2681 21.0918 24.4898 21.5133C25.9291 24.2578 27.7572 26.8326 29.987 29.0157C30.251 29.2738 30.5188 29.5325 30.7988 29.7819C31.0234 29.9861 31.2577 30.1776 31.4852 30.3686C31.5567 30.4284 31.6326 30.4993 31.7245 30.5737L31.733 30.5823C32.0495 30.8389 32.373 31.0963 32.7157 31.3428V31.3456L32.7214 31.3513C32.8833 31.4738 33.0518 31.5827 33.2312 31.676C33.4121 31.7708 33.6041 31.8511 33.798 31.9153C33.8141 31.9211 33.8276 31.9251 33.8436 31.9295C34.023 31.9864 34.2053 32.0299 34.3905 32.0605C34.5917 32.0926 34.8001 32.1118 35.0057 32.1118C35.6182 32.1118 36.2278 31.9604 36.7688 31.676C36.9482 31.5827 37.121 31.4696 37.2844 31.3456C37.6314 31.0962 37.9561 30.8318 38.2784 30.5737C38.3688 30.5008 38.4462 30.4285 38.5205 30.3658C38.748 30.1762 38.9767 29.9846 39.2013 29.7819C39.4798 29.5325 39.7476 29.2738 40.013 29.0157C42.2428 26.8311 44.0752 24.255 45.5131 21.5104C45.7333 21.0889 45.9371 20.6587 46.1369 20.2372C46.1427 20.2226 46.1523 20.2078 46.1625 20.1888C46.3419 19.8082 46.5133 19.4229 46.6781 19.0438C46.7262 18.93 46.7737 18.8159 46.8262 18.6963C46.8597 18.6161 46.8924 18.5342 46.923 18.4599C47.0397 18.1799 47.1511 17.8955 47.262 17.6082C47.3437 17.3968 47.4211 17.193 47.4984 16.9844C47.6005 16.703 47.7041 16.4145 47.8003 16.1243C47.9768 15.6022 48.147 15.0758 48.3016 14.5406C48.3104 14.51 48.3173 14.4758 48.3159 14.4438C48.4296 14.0617 48.5038 13.6641 48.5038 13.2674C48.5038 12.9947 48.4723 12.7322 48.4212 12.4756C48.4183 12.4595 48.4144 12.4282 48.4042 12.3844C48.3837 12.2926 48.3591 12.2054 48.3358 12.1252C48.3227 12.0786 48.3063 12.027 48.2874 11.9657C48.2582 11.8753 48.2254 11.7951 48.1962 11.7208C48.1758 11.6712 48.1598 11.6167 48.1336 11.5613C48.1 11.4854 48.059 11.4092 48.0196 11.3363C47.989 11.2779 47.9577 11.2208 47.9256 11.1654C47.8877 11.0997 47.8484 11.0359 47.8032 10.9688C47.7652 10.9119 47.7228 10.8561 47.6864 10.8065C47.6412 10.7452 47.5951 10.6799 47.5383 10.6128C47.4901 10.5544 47.4425 10.507 47.3987 10.4618C47.3535 10.4137 47.3047 10.3563 47.2449 10.2995C47.1691 10.2266 47.0927 10.1656 47.0227 10.1058C47.0009 10.0883 46.9684 10.0526 46.9173 10.0118C46.5265 9.65887 46.1524 9.29554 45.7951 8.92659C44.713 7.80367 43.7808 6.61328 43.0152 5.35766C43.0122 5.35036 43.0081 5.34216 43.0038 5.33487C43.0038 5.33487 42.9995 5.33494 42.9981 5.33202C42.5824 4.59702 41.96 4.01041 41.2236 3.64582C40.7802 3.42561 40.2941 3.28379 39.788 3.23567C39.7734 3.23421 39.7599 3.23421 39.7453 3.23567C38.1834 3.03588 36.5954 2.91666 35.0029 2.91666H35H34.9972H34.9943ZM35 8.02937C39.0527 8.02937 42.3401 11.3167 42.3401 15.3695C42.3401 19.4222 39.0527 22.7095 35 22.7095C30.9459 22.7095 27.6571 19.4236 27.6571 15.3695C27.6571 11.3153 30.9459 8.02791 35 8.02937Z" fill="#FF9955"/>
<path d="M39.2525 11.4246C39.216 11.4246 39.1781 11.429 39.1417 11.4392C38.5656 11.5908 38.0056 11.8052 37.4719 12.0794C36.1667 12.7517 35.0715 13.7535 34.1819 14.891C33.7823 15.4029 33.4221 15.9469 33.1056 16.5112L32.0804 15.1696C31.8763 14.9056 31.5627 14.754 31.2288 14.754C31.2229 14.754 31.2185 14.754 31.2113 14.754C30.6235 14.7642 30.1481 15.2425 30.1481 15.8302C30.1481 16.0212 30.1977 16.2094 30.294 16.3742L32.2452 19.5037C32.4333 19.8421 32.7629 20.0769 33.1363 20.1498C33.1494 20.1527 33.161 20.1527 33.1727 20.1556C33.2296 20.1644 33.2865 20.1702 33.3433 20.1731C33.3667 20.1746 33.3885 20.1819 33.4119 20.1819C33.9763 20.1819 34.4735 19.8115 34.6369 19.2704C35.0321 18.0804 35.5877 16.9444 36.2688 15.8929C37.1569 14.5206 38.2798 13.3044 39.5646 12.2894C39.9321 12.0021 39.7177 11.4129 39.2525 11.4246Z" fill="#FF9955"/>
</svg>
