<svg width="70" height="70" viewBox="0 0 70 70" fill="none" xmlns="http://www.w3.org/2000/svg">
<path d="M36.6748 21.3082C36.1965 21.3082 35.7248 21.4154 35.3019 21.6414C34.1192 22.2 32.969 22.8375 31.8811 23.5783C31.5588 23.7985 31.2459 24.0257 30.9411 24.259C30.2164 24.7432 29.7904 25.5645 29.7904 26.4352C29.7904 26.4643 29.7804 26.4943 29.7819 26.5234V29.6908C29.7819 29.7199 29.7904 29.7527 29.7904 29.7819C29.7904 30.6292 30.2 31.4324 30.8927 31.921C31.2136 32.1674 31.5398 32.4097 31.8811 32.6416C32.9515 33.3708 34.0826 34.0015 35.2478 34.5557C35.6853 34.7992 36.1774 34.9203 36.6776 34.9203C37.4316 34.9203 38.1574 34.632 38.7028 34.1113C39.1038 33.7643 39.4796 33.389 39.8165 32.9749C40.1519 32.5592 40.4344 32.1071 40.6852 31.639C41.0031 31.0994 41.5905 30.7703 42.2176 30.7674H48.4582H54.941H55.2372C55.4822 30.7674 55.7173 30.6704 55.8923 30.4968L56.8835 29.5199C57.2569 29.1538 57.2569 28.5529 56.8835 28.1869L56.4563 27.7653C56.2813 27.5932 56.0462 27.4976 55.8012 27.4976H55.5049H51.8449H51.3379H50.1644H49.7656H49.0307C48.7318 27.4874 48.4386 27.4029 48.1819 27.2498L46.0001 25.9082C45.8514 25.8178 45.6838 25.7686 45.5102 25.7686H42.3515C41.7098 25.7555 41.1181 25.4017 40.8162 24.8344C40.5377 24.2729 40.2131 23.735 39.8165 23.245C39.4825 22.8338 39.1009 22.467 38.7028 22.1228C38.1574 21.5993 37.4331 21.3082 36.6748 21.3082ZM32.9179 26.6488H32.935C33.6481 26.659 34.2224 27.3107 34.2224 28.1128C34.2224 28.9207 33.6383 29.5768 32.9179 29.5768C32.1989 29.5768 31.6162 28.9207 31.6162 28.1128C31.6162 27.3049 32.1989 26.6502 32.9179 26.6488Z" fill="#3973B7"/>
<path d="M19.6334 23.3647C18.614 23.3151 17.5566 23.4727 16.5999 23.9058C16.107 24.129 15.6695 24.4445 15.2641 24.7945C14.7916 24.8645 14.3284 24.9845 13.9026 25.2018C12.9517 25.6874 12.2193 26.5068 11.7891 27.4605C11.2889 28.5688 11.22 29.7491 11.1967 30.8443C11.1792 31.677 11.1973 32.5138 11.2309 33.348C11.1871 33.3771 11.1423 33.4026 11.0941 33.442C10.925 33.5776 10.6282 33.8225 10.4561 34.2338C10.3015 34.6057 10.3179 34.9475 10.3222 35.1196C10.3354 35.5265 10.3707 35.9347 10.4305 36.3415C10.5559 37.1815 10.7956 38.1288 11.4416 38.9221C11.64 39.1671 11.8748 39.3496 12.1081 39.5202C12.321 40.2727 12.5943 41.0373 13.0595 41.7533C13.9534 43.13 15.3165 44.1312 16.8449 44.6387C17.5974 44.888 18.3828 45.0203 19.1805 45.0232H19.1833H19.1919H19.1947C19.9924 45.0203 20.7778 44.888 21.5303 44.6387C23.0587 44.1312 24.4203 43.1314 25.3157 41.7533C25.7459 41.0898 26.0143 40.384 26.2272 39.6855C26.5626 39.4769 26.8918 39.2429 27.1529 38.9221C27.7989 38.1273 28.0415 37.1815 28.1669 36.3415C28.2281 35.9347 28.2591 35.5265 28.2723 35.1196C28.2766 34.9475 28.2973 34.6057 28.1413 34.2338C27.9706 33.8225 27.6739 33.5776 27.5032 33.442C27.4945 33.4347 27.485 33.4293 27.4747 33.422C27.4995 33.2485 27.5298 33.0743 27.5488 32.9008C27.6582 31.9047 27.6919 30.8855 27.5403 29.8588C27.3886 28.8307 27.0458 27.8048 26.4494 26.9108C25.5102 25.505 24.0506 24.5915 22.55 24.0169C21.6313 23.664 20.6513 23.4157 19.6334 23.3647ZM15.8594 28.3463C16.5637 29.0857 17.394 29.7036 18.3288 30.1265C19.5495 30.6778 20.908 30.9155 22.2453 30.7959C22.9759 30.7303 23.6528 30.5707 24.2989 30.4569C24.5176 30.419 24.6553 30.4224 24.7005 30.437C24.734 30.4487 24.8045 30.4907 24.8629 30.568C24.9256 30.6511 24.9895 30.7723 25.0537 30.9269C25.357 31.6634 25.4987 32.4715 25.5294 33.2882H25.5464C25.5464 33.3115 25.5451 33.3346 25.5436 33.3565C25.5363 33.7255 25.7284 34.07 26.0477 34.2537C26.233 34.3602 26.4086 34.4828 26.569 34.6126C26.7134 34.7293 26.7437 34.7625 26.7627 34.8091C26.7802 34.8514 26.7856 34.8858 26.7798 35.0769C26.7696 35.4342 26.7353 35.7809 26.6858 36.1251C26.5793 36.844 26.3831 37.5052 25.9908 37.9879C25.8289 38.1877 25.604 38.3646 25.3357 38.5148C25.1038 38.646 24.9329 38.8606 24.86 39.1158C24.669 39.7735 24.4241 40.386 24.0653 40.9387C23.3682 42.0106 22.2852 42.8191 21.0661 43.223C20.4623 43.4228 19.8291 43.5278 19.1947 43.5307H19.1833C18.5475 43.5278 17.9171 43.4228 17.3148 43.223C16.0971 42.8191 15.0127 42.0106 14.3156 40.9387C13.9306 40.3466 13.6778 39.6851 13.4867 38.9705C13.4255 38.7401 13.282 38.5379 13.0851 38.4009C12.8809 38.2594 12.7203 38.1236 12.6094 37.985C12.2171 37.5023 12.0224 36.8412 11.9144 36.1222C11.8634 35.7795 11.8307 35.4313 11.8205 35.074C11.8146 34.883 11.82 34.8529 11.8375 34.8091C11.8565 34.7625 11.8897 34.7293 12.0341 34.6126C12.107 34.5543 12.2227 34.4754 12.3787 34.3734C12.6748 34.1823 12.8504 33.8505 12.8401 33.4961C12.8285 33.1023 12.8233 32.7233 12.8145 32.3368C12.7343 31.2197 13.2909 29.9872 14.0507 29.3091C14.5567 28.8453 15.1914 28.5097 15.8594 28.3463Z" fill="#3973B7"/>
<path d="M13.0025 45.1033C11.8242 45.1762 10.6633 45.2594 9.54478 45.3717C7.01749 45.586 4.86062 47.2937 4.06728 49.7044C4.03228 49.8079 4.00457 49.9158 3.97541 50.0208C3.71874 50.8331 3.50145 51.6614 3.32353 52.5044C3.20978 53.041 3.11061 53.5806 3.02166 54.1217C2.93707 54.5358 2.91666 54.969 2.91666 55.3933C2.91666 58.415 5.05312 61.0356 8.01791 61.6219C11.2685 62.4137 15.2717 62.8775 19.2967 62.8775H19.2996H19.3054C23.3319 62.8775 27.3306 62.4137 30.5812 61.6219C33.546 61.0356 35.6854 58.415 35.6854 55.3933C35.6854 54.969 35.6621 54.5358 35.5775 54.1202C35.4885 53.5792 35.3923 53.0396 35.2785 52.5029C35.0992 51.66 34.8804 50.8317 34.6237 50.0194C34.5946 49.9144 34.5669 49.8065 34.5319 49.7029C33.7385 47.2937 31.5831 45.586 29.0544 45.3702C27.9358 45.2594 26.775 45.1762 25.5967 45.1019C25.2014 45.9842 24.7494 46.8431 24.2273 47.6598C23.6046 48.6325 22.89 49.5527 22.1112 50.4029C21.7525 50.7967 21.3733 51.1656 20.9869 51.5273L20.3802 48.3656L21.0758 47.5592C21.436 47.1406 21.3879 46.5092 20.9694 46.149C20.7871 45.9929 20.5552 45.9069 20.3146 45.9069H18.286C17.7333 45.9069 17.2856 46.3546 17.2856 46.9073C17.2856 47.1465 17.3717 47.3769 17.5277 47.5592L18.2204 48.3656L17.6137 51.5244C17.2273 51.1627 16.8467 50.7923 16.4894 50.4015C15.7106 49.5512 14.9989 48.631 14.3762 47.6583C13.8527 46.8446 13.3977 45.9856 13.0025 45.1033Z" fill="#3973B7"/>
<path d="M61.1508 17.6998V19.1669V24.8179V29.1594V30.504V31.3323V38.6035H29.05C28.8619 39.0265 28.6329 39.4508 28.3033 39.8563C28.0189 40.2063 27.7258 40.3783 27.4341 40.5854C27.2169 41.2242 26.9966 41.8877 26.5591 42.56C26.2879 42.9756 25.8956 43.2688 25.5616 43.6246C25.6039 43.6246 25.6477 43.6246 25.69 43.6275C25.7994 43.6348 25.9029 43.6465 26.0123 43.6538H35.0014C34.9533 44.0636 34.9066 44.4733 34.8585 44.8817C34.7841 45.5365 34.7069 46.1694 34.5421 46.7469C35.1414 47.479 35.6256 48.3117 35.9319 49.2421L35.9348 49.245C35.9698 49.3544 36.0019 49.4667 36.031 49.576C36.1229 49.8648 36.2016 50.1594 36.2848 50.454H38.2564H41.0652H41.2358H45.0523H47.8639C48.1235 50.4525 48.351 50.2892 48.4371 50.0442L48.7564 49.1356C48.8702 48.8177 48.7039 48.4692 48.386 48.3569C48.3204 48.3321 48.2519 48.3219 48.1833 48.3219H46.0731C45.9769 48.284 45.8791 48.2373 45.7946 48.176C45.535 47.9908 45.325 47.6919 45.1646 47.3419C44.8364 46.6215 44.7416 45.7698 44.641 44.8831C44.5944 44.4748 44.5419 44.0635 44.4923 43.6552H61.2544C62.3029 43.6552 63.1546 42.8065 63.1546 41.7579V31.3338V30.5054V24.4271V22.2542V17.9083V17.7027H61.1508V17.6998Z" fill="#3973B7"/>
<path d="M18.2408 12.6802C17.1923 12.6802 16.3435 13.529 16.3435 14.5775V19.1654V22.4233C17.0012 22.1667 17.6721 22.0092 18.3458 21.9362V17.9025V14.6854H44.1598C43.9615 14.4594 43.8433 14.1735 43.8258 13.8731V13.8673C43.8229 13.8148 43.82 13.7608 43.82 13.7054H43.8258C43.8258 13.6908 43.8258 13.6748 43.8258 13.6602C43.8346 13.3131 43.9119 12.9908 44.0256 12.6802H18.2408Z" fill="#3973B7"/>
<path d="M52.1471 7.1327C51.7796 7.1677 51.4223 7.30479 51.1671 7.53666L45.7348 12.479C45.4023 12.7808 45.1908 13.2431 45.1792 13.6923C45.1792 13.6981 45.1763 13.7054 45.1763 13.7127C45.1763 13.7404 45.1763 13.7696 45.1792 13.806V13.8075C45.1996 14.2435 45.4125 14.6912 45.7348 14.9844L51.1671 19.9267C51.6775 20.3904 52.5948 20.4823 53.184 20.1265C53.7731 19.7706 54.1217 18.9131 53.9467 18.2467L53.4538 16.3435H63.509H65.3348C66.2725 16.3435 67.1183 15.4671 67.0833 14.5294C67.0775 14.3544 67.0483 14.1794 66.99 14.0131L66.3804 12.2923C66.1427 11.6142 65.45 11.1242 64.731 11.1212H62.9052H53.4552L53.9481 9.2152C54.1217 8.54874 53.7746 7.69416 53.1854 7.33833C52.8894 7.16187 52.5146 7.09624 52.1471 7.1327Z" fill="#FF9955"/>
</svg>
