<svg width="30" height="30" viewBox="0 0 30 30" fill="none" xmlns="http://www.w3.org/2000/svg">
<path d="M13.6875 16.7875L11.4575 14.5575C11.335 14.4358 11.1913 14.3712 11.0262 14.3637C10.8612 14.3562 10.71 14.4208 10.5725 14.5575C10.435 14.6942 10.3658 14.8429 10.365 15.0037C10.3642 15.1646 10.4333 15.3133 10.5725 15.45L12.9813 17.865C13.1829 18.0675 13.4183 18.1687 13.6875 18.1687C13.9567 18.1687 14.1925 18.0675 14.395 17.865L19.4425 12.8175C19.5642 12.6958 19.6292 12.5512 19.6375 12.3837C19.6458 12.2162 19.5808 12.0637 19.4425 11.9262C19.3042 11.7887 19.1554 11.7196 18.9962 11.7187C18.8371 11.7179 18.6887 11.7871 18.5512 11.9262L13.6875 16.7875ZM15 26.0537C14.8867 26.0537 14.7675 26.0433 14.6425 26.0225C14.5175 26.0017 14.4004 25.9704 14.2912 25.9287C11.8304 24.9904 9.875 23.4 8.425 21.1575C6.975 18.915 6.25 16.4875 6.25 13.875V8.52124C6.25 8.09624 6.37292 7.71165 6.61875 7.36749C6.86458 7.02332 7.17917 6.77332 7.5625 6.61749L14.2938 4.11749C14.5371 4.02915 14.7725 3.98499 15 3.98499C15.2275 3.98499 15.4633 4.02915 15.7075 4.11749L22.4375 6.61749C22.8208 6.77332 23.1354 7.02332 23.3813 7.36749C23.6271 7.71165 23.75 8.09624 23.75 8.52124V13.875C23.75 16.4875 23.025 18.915 21.575 21.1575C20.125 23.4 18.1696 24.99 15.7088 25.9275C15.6004 25.9692 15.4837 26.0004 15.3587 26.0212C15.2337 26.0421 15.1142 26.0525 15 26.0525" fill="#2AC12F"/>
</svg>
